<svg xmlns="http://www.w3.org/2000/svg" version="1.1" xmlns:xlink="http://www.w3.org/1999/xlink" xmlns:svgjs="http://svgjs.com/svgjs" width="512" height="512" x="0" y="0" viewBox="0 0 512 512" style="enable-background:new 0 0 512 512" xml:space="preserve"><g>
<g>
	<g>
		<path d="M407,0H105C47.103,0,0,47.103,0,105v302c0,57.897,47.103,105,105,105h302c57.897,0,105-47.103,105-105V105
			C512,47.103,464.897,0,407,0z M270.683,101.284C293.548,71.147,325.336,71,325.336,71s4.728,28.333-17.987,55.628
			c-24.254,29.145-51.823,24.375-51.823,24.375S250.35,128.082,270.683,101.284z M320.809,418.489
			c-20.333,0-36.139-13.702-57.562-13.702c-21.831,0-43.496,14.213-57.605,14.213c-40.423,0-91.491-87.504-91.491-157.842
			c0-69.204,43.226-105.507,83.771-105.507c26.357,0,46.811,15.2,60.513,15.2c11.764,0,33.594-16.169,62.011-16.169
			c48.915,0,68.157,34.806,68.157,34.806s-37.635,19.242-37.635,65.932c0,52.671,46.883,70.823,46.883,70.823
			S365.076,418.489,320.809,418.489z" fill="#ffffff" data-original="#000000"></path>
	</g>
</g>
<g>
</g>
<g>
</g>
<g>
</g>
<g>
</g>
<g>
</g>
<g>
</g>
<g>
</g>
<g>
</g>
<g>
</g>
<g>
</g>
<g>
</g>
<g>
</g>
<g>
</g>
<g>
</g>
<g>
</g>
</g></svg>