<svg xmlns="http://www.w3.org/2000/svg" version="1.1" xmlns:xlink="http://www.w3.org/1999/xlink" xmlns:svgjs="http://svgjs.com/svgjs" width="512" height="512" x="0" y="0" viewBox="0 0 64 64" style="enable-background:new 0 0 512 512" xml:space="preserve"><g><path d="m24 59h16c.552 0 1-.448 1-1v-4c0-.552-.448-1-1-1h-16c-.552 0-1 .448-1 1v4c0 .552.448 1 1 1zm1-4h14v2h-14z" fill="#ffffff" data-original="#000000"></path><path d="m62 1h-12-36-12c-.552 0-1 .448-1 1v12.05c0 3.459 1.347 6.711 3.793 9.157 2.295 2.295 5.302 3.607 8.562 3.762 1.199 5.103 5.406 9.046 10.645 9.861v1.17c0 1.654 1.346 3 3 3v4c-1.654 0-3 1.346-3 3v1h-2c-.431 0-.812.275-.949.684l-4 12c-.102.305-.05.64.138.901s.49.415.811.415h28c.321 0 .623-.154.811-.416.188-.261.239-.596.138-.901l-4-12c-.137-.408-.518-.683-.949-.683h-2v-1c0-1.654-1.346-3-3-3v-4c1.654 0 3-1.346 3-3v-1.17c5.238-.814 9.445-4.756 10.644-9.859 3.235-.146 6.258-1.459 8.563-3.764 2.446-2.446 3.793-5.698 3.793-9.157v-12.05c0-.552-.448-1-1-1zm-55.793 20.793c-2.068-2.068-3.207-4.818-3.207-7.743v-11.05h10v2h-7c-.552 0-1 .448-1 1v8c0 2.202.857 4.271 2.414 5.828l.758.758c1.318 1.318 3.006 2.128 4.828 2.347v1.067c0 .323.025.639.048.956-2.584-.209-4.987-1.309-6.841-3.163zm6.793-14.793v13.914c-1.287-.206-2.474-.803-3.414-1.742l-.758-.758c-1.179-1.179-1.828-2.747-1.828-4.414v-7zm38 0h6v7c0 1.667-.649 3.235-1.828 4.414l-.758.758c-.94.939-2.127 1.535-3.414 1.742zm-6.387 54h-25.226l3.333-10h18.559zm-6.613-13v1h-12v-1c0-.551.449-1 1-1h10c.551 0 1 .449 1 1zm-3-3h-6v-4h6zm3-7c0 .551-.449 1-1 1h-10c-.551 0-1-.449-1-1v-1h12zm11-14c0 6.065-4.935 11-11 11h-12c-6.065 0-11-4.935-11-11v-21h34zm12-9.95c0 2.925-1.139 5.674-3.207 7.743-1.846 1.845-4.235 2.945-6.841 3.161.023-.316.048-.632.048-.954v-1.067c1.822-.219 3.51-1.029 4.828-2.347l.758-.758c1.557-1.557 2.414-3.626 2.414-5.828v-8c0-.552-.448-1-1-1h-7v-2h10z" fill="#ffffff" data-original="#000000"></path><path d="m26 20.689v11.311c0 .404.244.769.617.924.374.153.803.069 1.09-.217l4.293-4.293 4.293 4.293c.191.191.447.293.707.293.129 0 .259-.025.383-.076.373-.155.617-.52.617-.924v-11.311c1.836-1.649 3-4.033 3-6.689 0-4.962-4.038-9-9-9s-9 4.038-9 9c0 2.656 1.164 5.04 3 6.689zm10 8.897-3.293-3.293c-.391-.391-1.023-.391-1.414 0l-3.293 3.293v-7.536c1.207.602 2.562.95 4 .95s2.793-.348 4-.95zm-4-22.586c3.86 0 7 3.14 7 7s-3.14 7-7 7-7-3.14-7-7 3.14-7 7-7z" fill="#ffffff" data-original="#000000"></path><path d="m32 19c2.757 0 5-2.243 5-5s-2.243-5-5-5-5 2.243-5 5 2.243 5 5 5zm0-8c1.654 0 3 1.346 3 3s-1.346 3-3 3-3-1.346-3-3 1.346-3 3-3z" fill="#ffffff" data-original="#000000"></path></g></svg>