<svg width="230" height="230" viewBox="0 0 230 230" fill="none" xmlns="http://www.w3.org/2000/svg">
<rect y="114.551" width="18" height="18" transform="rotate(-45 0 114.551)" fill="#D3D3D3"/>
<rect x="25.4558" y="140.007" width="18" height="18" transform="rotate(-45 25.4558 140.007)" fill="#D3D3D3"/>
<rect x="50.9117" y="165.463" width="18" height="18" transform="rotate(-45 50.9117 165.463)" fill="#D3D3D3"/>
<rect x="76.3675" y="190.919" width="18" height="18" transform="rotate(-45 76.3675 190.919)" fill="#D3D3D3"/>
<rect x="101.823" y="216.375" width="18" height="18" transform="rotate(-45 101.823 216.375)" fill="#D3D3D3"/>
<rect x="25.4558" y="114.551" width="18" height="18" transform="rotate(-45 25.4558 114.551)" fill="#D3D3D3"/>
<rect x="50.9117" y="140.007" width="18" height="18" transform="rotate(-45 50.9117 140.007)" fill="#D3D3D3"/>
<rect x="76.3675" y="165.463" width="18" height="18" transform="rotate(-45 76.3675 165.463)" fill="#D3D3D3"/>
<rect x="101.823" y="190.919" width="18" height="18" transform="rotate(-45 101.823 190.919)" fill="#D3D3D3"/>
<rect x="25.4558" y="89.0955" width="18" height="18" transform="rotate(-45 25.4558 89.0955)" fill="#D3D3D3"/>
<rect x="50.9117" y="114.551" width="18" height="18" transform="rotate(-45 50.9117 114.551)" fill="#D3D3D3"/>
<rect x="76.3675" y="140.007" width="18" height="18" transform="rotate(-45 76.3675 140.007)" fill="#D3D3D3"/>
<rect x="101.823" y="165.463" width="18" height="18" transform="rotate(-45 101.823 165.463)" fill="#D3D3D3"/>
<rect x="127.279" y="190.919" width="18" height="18" transform="rotate(-45 127.279 190.919)" fill="#D3D3D3"/>
<rect x="50.9117" y="89.0955" width="18" height="18" transform="rotate(-45 50.9117 89.0955)" fill="#D3D3D3"/>
<rect x="76.3675" y="114.551" width="18" height="18" transform="rotate(-45 76.3675 114.551)" fill="#D3D3D3"/>
<rect x="101.823" y="140.007" width="18" height="18" transform="rotate(-45 101.823 140.007)" fill="#D3D3D3"/>
<rect x="127.279" y="165.463" width="18" height="18" transform="rotate(-45 127.279 165.463)" fill="#D3D3D3"/>
<rect x="50.9117" y="63.6396" width="18" height="18" transform="rotate(-45 50.9117 63.6396)" fill="#D3D3D3"/>
<rect x="76.3675" y="89.0955" width="18" height="18" transform="rotate(-45 76.3675 89.0955)" fill="#D3D3D3"/>
<rect x="101.823" y="114.551" width="18" height="18" transform="rotate(-45 101.823 114.551)" fill="#D3D3D3"/>
<rect x="127.279" y="140.007" width="18" height="18" transform="rotate(-45 127.279 140.007)" fill="#D3D3D3"/>
<rect x="152.735" y="165.463" width="18" height="18" transform="rotate(-45 152.735 165.463)" fill="#D3D3D3"/>
<rect x="76.3675" y="63.6396" width="18" height="18" transform="rotate(-45 76.3675 63.6396)" fill="#D3D3D3"/>
<rect x="101.823" y="89.0955" width="18" height="18" transform="rotate(-45 101.823 89.0955)" fill="#D3D3D3"/>
<rect x="127.279" y="114.551" width="18" height="18" transform="rotate(-45 127.279 114.551)" fill="#D3D3D3"/>
<rect x="152.735" y="140.007" width="18" height="18" transform="rotate(-45 152.735 140.007)" fill="#D3D3D3"/>
<rect x="76.3675" y="38.1838" width="18" height="18" transform="rotate(-45 76.3675 38.1838)" fill="#D3D3D3"/>
<rect x="101.823" y="63.6396" width="18" height="18" transform="rotate(-45 101.823 63.6396)" fill="#D3D3D3"/>
<rect x="127.279" y="89.0955" width="18" height="18" transform="rotate(-45 127.279 89.0955)" fill="#D3D3D3"/>
<rect x="152.735" y="114.551" width="18" height="18" transform="rotate(-45 152.735 114.551)" fill="#D3D3D3"/>
<rect x="178.191" y="140.007" width="18" height="18" transform="rotate(-45 178.191 140.007)" fill="#D3D3D3"/>
<rect x="101.823" y="38.1838" width="18" height="18" transform="rotate(-45 101.823 38.1838)" fill="#D3D3D3"/>
<rect x="127.279" y="63.6396" width="18" height="18" transform="rotate(-45 127.279 63.6396)" fill="#D3D3D3"/>
<rect x="152.735" y="89.0955" width="18" height="18" transform="rotate(-45 152.735 89.0955)" fill="#D3D3D3"/>
<rect x="178.191" y="114.551" width="18" height="18" transform="rotate(-45 178.191 114.551)" fill="#D3D3D3"/>
<rect x="101.823" y="12.7279" width="18" height="18" transform="rotate(-45 101.823 12.7279)" fill="#D3D3D3"/>
<rect x="127.279" y="38.1838" width="18" height="18" transform="rotate(-45 127.279 38.1838)" fill="#D3D3D3"/>
<rect x="152.735" y="63.6396" width="18" height="18" transform="rotate(-45 152.735 63.6396)" fill="#D3D3D3"/>
<rect x="178.191" y="89.0955" width="18" height="18" transform="rotate(-45 178.191 89.0955)" fill="#D3D3D3"/>
<rect x="203.647" y="114.551" width="18" height="18" transform="rotate(-45 203.647 114.551)" fill="#D3D3D3"/>
</svg>
