<svg xmlns="http://www.w3.org/2000/svg" version="1.1" xmlns:xlink="http://www.w3.org/1999/xlink" xmlns:svgjs="http://svgjs.com/svgjs" width="512" height="512" x="0" y="0" viewBox="0 0 64 64" style="enable-background:new 0 0 512 512" xml:space="preserve"><g><path d="m23 53c-1.654 0-3 1.346-3 3s1.346 3 3 3 3-1.346 3-3-1.346-3-3-3zm0 4c-.552 0-1-.448-1-1s.448-1 1-1 1 .448 1 1-.448 1-1 1z" fill="#ffffff" data-original="#000000"></path><path d="m62 15h-3v-1c0-.553-.447-1-1-1h-11v-7c0-2.757-2.243-5-5-5h-36c-2.757 0-5 2.243-5 5v52c0 2.757 2.243 5 5 5h36c2.757 0 5-2.243 5-5v-15h15c.553 0 1-.447 1-1v-26c0-.553-.447-1-1-1zm-36 28h15v6h-34v-42h34v6h-11c-.553 0-1 .447-1 1v1h-3c-.553 0-1 .447-1 1v26c0 .553.447 1 1 1zm17-28v18h-12v-18zm-12 20h12v2h-12zm14 0h12v2h-12zm12-2h-12v-18h12zm-12 25c0 1.654-1.346 3-3 3h-36c-1.654 0-3-1.346-3-3v-52c0-1.654 1.346-3 3-3h36c1.654 0 3 1.346 3 3v7h-2v-7c0-.553-.447-1-1-1h-36c-.553 0-1 .447-1 1v44c0 .553.447 1 1 1h36c.553 0 1-.447 1-1v-7h2zm16-17h-34v-24h2v21c0 .553.447 1 1 1h28c.553 0 1-.447 1-1v-21h2z" fill="#ffffff" data-original="#000000"></path><path d="m33 17h8v2h-8z" fill="#ffffff" data-original="#000000"></path><path d="m33 21h8v2h-8z" fill="#ffffff" data-original="#000000"></path><path d="m33 25h8v2h-8z" fill="#ffffff" data-original="#000000"></path><path d="m33 29h8v2h-8z" fill="#ffffff" data-original="#000000"></path><path d="m47 17h8v2h-8z" fill="#ffffff" data-original="#000000"></path><path d="m47 21h8v2h-8z" fill="#ffffff" data-original="#000000"></path><path d="m47 25h8v2h-8z" fill="#ffffff" data-original="#000000"></path><path d="m47 29h8v2h-8z" fill="#ffffff" data-original="#000000"></path><path d="m17 9c-2.206 0-4 1.794-4 4v25c0 .12.021.239.063.352l3 8c.147.389.52.648.937.648s.79-.259.937-.648l3-8c.042-.113.063-.232.063-.352v-25c0-2.206-1.794-4-4-4zm0 2c1.103 0 2 .897 2 2v4h-4v-4c0-1.103.897-2 2-2zm-2 26v-18h4v18zm2 6.152-1.557-4.152h3.114z" fill="#ffffff" data-original="#000000"></path></g></svg>