<svg xmlns="http://www.w3.org/2000/svg" version="1.1" xmlns:xlink="http://www.w3.org/1999/xlink" xmlns:svgjs="http://svgjs.com/svgjs" width="512" height="512" x="0" y="0" viewBox="0 0 64 64" style="enable-background:new 0 0 512 512" xml:space="preserve"><g><path d="m57.974 25h4.026c.553 0 1-.448 1-1v-4c0-.552-.447-1-1-1h-4.026c-.279-.369-.606-.695-.974-.974v-16.026c0-.552-.447-1-1-1h-4c-.553 0-1 .448-1 1v16.026c-.369.279-.695.606-.974.974h-3.026v-4h1c.553 0 1-.448 1-1v-4c0-.552-.447-1-1-1h-12c-.553 0-1 .448-1 1v4c0 .552.447 1 1 1h1v4h-3.026c-.279-.369-.606-.695-.974-.974v-16.026c0-.552-.447-1-1-1h-4c-.553 0-1 .448-1 1v16.026c-.369.279-.695.606-.974.974h-4.026c-.553 0-1 .448-1 1v4c0 .552.447 1 1 1h4.026c.279.369.606.695.974.974v14.051c-.369.279-.695.606-.974.974h-4.026c-.553 0-1 .447-1 1v4c0 .553.447 1 1 1h4.026c.279.369.606.695.974.974v9.027h-25c-.553 0-1 .447-1 1v4c0 .553.447 1 1 1h60c.553 0 1-.447 1-1v-4c0-.553-.447-1-1-1h-5v-9.026c.369-.279.695-.606.974-.974h4.026c.553 0 1-.447 1-1v-4c0-.553-.447-1-1-1h-4.026c-.279-.369-.606-.695-.974-.974v-14.052c.369-.279.695-.605.974-.974zm3.026-4v2h-2.101c.066-.323.101-.658.101-1s-.035-.677-.101-1zm-8-18h2v14.101c-.323-.066-.658-.101-1-.101s-.677.035-1 .101zm1 16c1.654 0 3 1.346 3 3s-1.346 3-3 3-3-1.346-3-3 1.346-3 3-3zm-3.974 22h-3.026v-16h3.026c.279.369.606.695.974.974v14.051c-.369.28-.695.606-.974.975zm-17.026 16v-9.026c.369-.279.695-.606.974-.974h3.026v3c0 2.757 2.243 5 5 5s5-2.243 5-5v-3h3.026c.279.369.606.695.974.974v9.026zm.974-32h3.026v16h-3.026c-.279-.369-.606-.695-.974-.974v-14.052c.369-.279.695-.605.974-.974zm15.127 20h-14.202c.066-.323.101-.658.101-1s-.035-.677-.101-1h14.202c-.066.323-.101.658-.101 1s.035.677.101 1zm-10.101 2h6v3c0 1.654-1.346 3-3 3s-3-1.346-3-3zm0-6v-10h6v10zm6-12h-6v-4h6zm-8-18h10v2h-10zm2 4h6v4h-6zm10.101 6c-.066.323-.101.658-.101 1s.035.677.101 1h-14.202c.066-.323.101-.658.101-1s-.035-.677-.101-1zm-20.101-18h2v14.101c-.323-.066-.658-.101-1-.101s-.677.035-1 .101zm1 16c1.654 0 3 1.346 3 3s-1.346 3-3 3-3-1.346-3-3 1.346-3 3-3zm-7 4v-2h2.101c-.066.323-.101.658-.101 1s.035.677.101 1zm6 3.899c.323.066.658.101 1 .101s.677-.035 1-.101v12.202c-.323-.066-.658-.101-1-.101s-.677.035-1 .101zm1 14.101c1.654 0 3 1.346 3 3s-1.346 3-3 3-3-1.346-3-3 1.346-3 3-3zm-7 4v-2h2.101c-.066.323-.101.658-.101 1s.035.677.101 1zm6 3.899c.323.066.658.101 1 .101s.677-.035 1-.101v8.101h-2zm32 12.101h-58v-2h58zm-6-4h-2v-8.101c.323.066.658.101 1 .101s.677-.035 1-.101zm-1-10c-1.654 0-3-1.346-3-3s1.346-3 3-3 3 1.346 3 3-1.346 3-3 3zm7-4v2h-2.101c.066-.323.101-.658.101-1s-.035-.677-.101-1zm-6-3.899c-.323-.066-.658-.101-1-.101s-.677.035-1 .101v-12.202c.323.066.658.101 1 .101s.677-.035 1-.101z" fill="#ffffff" data-original="#000000"></path><path d="m5 43c-2.206 0-4 1.794-4 4s1.794 4 4 4 4-1.794 4-4c0-.74-.215-1.424-.567-2.019l6.547-6.547c.596.351 1.28.566 2.02.566 2.206 0 4-1.794 4-4s-1.794-4-4-4c-.74 0-1.424.215-2.019.567l-6.548-6.548c.352-.595.567-1.279.567-2.019s-.215-1.424-.567-2.019l6.548-6.548c.595.352 1.279.567 2.019.567 2.206 0 4-1.794 4-4s-1.794-4-4-4-4 1.794-4 4c0 .74.215 1.424.567 2.019l-6.548 6.548c-.595-.352-1.279-.567-2.019-.567-2.206 0-4 1.794-4 4s1.794 4 4 4c.74 0 1.424-.215 2.019-.567l6.548 6.548c-.352.595-.567 1.279-.567 2.019s.215 1.424.567 2.019l-6.547 6.547c-.596-.351-1.28-.566-2.02-.566zm0 6c-1.103 0-2-.897-2-2s.897-2 2-2 2 .897 2 2-.897 2-2 2zm14-14c0 1.103-.897 2-2 2s-2-.897-2-2 .897-2 2-2 2 .897 2 2zm-2-26c1.103 0 2 .897 2 2s-.897 2-2 2-2-.897-2-2 .897-2 2-2zm-14 14c0-1.103.897-2 2-2s2 .897 2 2-.897 2-2 2-2-.897-2-2z" fill="#ffffff" data-original="#000000"></path></g></svg>