<svg xmlns="http://www.w3.org/2000/svg" version="1.1" xmlns:xlink="http://www.w3.org/1999/xlink" xmlns:svgjs="http://svgjs.com/svgjs" width="512" height="512" x="0" y="0" viewBox="0 0 373.877 373.876" style="enable-background:new 0 0 512 512" xml:space="preserve"><g>
<g>
	<g>
		<path d="M37.379,178.545H22.712v50.417H9.888v-50.417H0v-5.979l9.888-3.909v-3.913c0-7.099,1.666-12.359,5-15.782
			c3.33-3.423,8.421-5.135,15.269-5.135c4.49,0,8.907,0.742,13.256,2.229l-3.37,9.67c-3.149-1.015-6.156-1.522-9.018-1.522
			c-2.898,0-5.007,0.896-6.329,2.69c-1.323,1.792-1.982,4.481-1.982,8.067v3.913h14.667L37.379,178.545L37.379,178.545z
			 M60.363,228.961H47.598V144.42h12.765V228.961z" fill="#ffffff" data-original="#000000"></path>
		<path d="M112.934,228.961l-2.555-8.364h-0.438c-2.896,3.657-5.812,6.151-8.744,7.471c-2.934,1.322-6.701,1.981-11.303,1.981
			c-5.904,0-10.512-1.592-13.825-4.778c-3.315-3.188-4.972-7.697-4.972-13.529c0-6.193,2.299-10.867,6.898-14.018
			c4.6-3.154,11.607-4.873,21.024-5.162l10.378-0.326v-3.205c0-3.837-0.896-6.709-2.688-8.611s-4.572-2.853-8.339-2.853
			c-3.082,0-6.034,0.453-8.856,1.357c-2.827,0.906-5.542,1.974-8.151,3.208l-4.128-9.129c3.262-1.702,6.826-2.999,10.705-3.886
			c3.874-0.886,7.531-1.33,10.975-1.33c7.643,0,13.412,1.667,17.303,4.997c3.895,3.333,5.843,8.565,5.843,15.701v40.479
			L112.934,228.961L112.934,228.961z M93.918,220.271c4.639,0,8.357-1.293,11.166-3.885c2.808-2.587,4.21-6.22,4.21-10.896v-5.217
			l-7.714,0.328c-6.017,0.215-10.39,1.223-13.124,3.019c-2.731,1.793-4.1,4.532-4.1,8.229c0,2.678,0.794,4.752,2.39,6.219
			C88.337,219.539,90.731,220.271,93.918,220.271z" fill="#ffffff" data-original="#000000"></path>
		<path d="M158.93,219.73c3.112,0,6.228-0.492,9.345-1.467v9.616c-1.411,0.617-3.232,1.129-5.46,1.545
			c-2.229,0.421-4.538,0.625-6.93,0.625c-12.097,0-18.146-6.372-18.146-19.122v-32.382h-8.204v-5.651l8.803-4.674l4.347-12.711
			h7.876v13.366h17.117v9.671h-17.116v32.164c0,3.082,0.771,5.354,2.311,6.816C154.414,218.996,156.432,219.73,158.93,219.73z" fill="#ffffff" data-original="#000000"></path>
		<path d="M176.184,152.957c0-2.284,0.626-4.04,1.872-5.271c1.251-1.229,3.032-1.848,5.354-1.848c2.245,0,3.991,0.618,5.241,1.848
			s1.874,2.986,1.874,5.271c0,2.171-0.624,3.884-1.874,5.132c-1.25,1.251-2.996,1.876-5.241,1.876c-2.32,0-4.104-0.625-5.354-1.876
			C176.81,156.839,176.184,155.126,176.184,152.957z M189.71,228.961h-12.765v-60.085h12.765V228.961z" fill="#ffffff" data-original="#000000"></path>
		<path d="M228.862,230.049c-9.096,0-16.001-2.649-20.727-7.957c-4.729-5.305-7.098-12.922-7.098-22.848
			c0-10.104,2.478-17.876,7.416-23.311c4.946-5.434,12.094-8.149,21.438-8.149c6.341,0,12.043,1.176,17.115,3.531l-3.859,10.268
			c-5.396-2.101-9.854-3.149-13.362-3.149c-10.396,0-15.594,6.899-15.594,20.696c0,6.738,1.297,11.803,3.885,15.188
			c2.591,3.389,6.386,5.078,11.386,5.078c5.688,0,11.063-1.412,16.14-4.232V226.3c-2.283,1.344-4.723,2.301-7.312,2.881
			C235.697,229.761,232.554,230.049,228.862,230.049z" fill="#ffffff" data-original="#000000"></path>
		<path d="M309.685,198.812c0,9.813-2.521,17.475-7.56,22.981c-5.028,5.504-12.039,8.256-21.021,8.256
			c-5.611,0-10.576-1.269-14.886-3.805c-4.312-2.533-7.626-6.177-9.942-10.921c-2.318-4.741-3.479-10.252-3.479-16.516
			c0-9.744,2.499-17.353,7.499-22.82c4.994-5.47,12.043-8.204,21.137-8.204c8.688,0,15.571,2.797,20.644,8.394
			C307.148,181.778,309.685,189.322,309.685,198.812z M265.947,198.812c0,13.873,5.125,20.809,15.375,20.809
			c10.146,0,15.212-6.936,15.212-20.809c0-13.729-5.104-20.592-15.315-20.592c-5.363,0-9.247,1.775-11.652,5.324
			C267.15,187.095,265.947,192.181,265.947,198.812z" fill="#ffffff" data-original="#000000"></path>
		<path d="M373.877,228.961h-12.82v-36.942c0-4.637-0.938-8.094-2.799-10.377c-1.864-2.281-4.824-3.422-8.884-3.422
			c-5.396,0-9.347,1.595-11.846,4.782c-2.5,3.188-3.748,8.529-3.748,16.027v29.936H321.01v-60.087h10l1.791,7.878h0.649
			c1.812-2.861,4.379-5.073,7.714-6.63c3.334-1.559,7.027-2.335,11.081-2.335c14.419,0,21.627,7.335,21.627,22.004L373.877,228.961
			L373.877,228.961z" fill="#ffffff" data-original="#000000"></path>
	</g>
</g>
<g>
</g>
<g>
</g>
<g>
</g>
<g>
</g>
<g>
</g>
<g>
</g>
<g>
</g>
<g>
</g>
<g>
</g>
<g>
</g>
<g>
</g>
<g>
</g>
<g>
</g>
<g>
</g>
<g>
</g>
</g></svg>