<svg width="941" height="314" viewBox="0 0 941 314" fill="none" xmlns="http://www.w3.org/2000/svg">
<rect y="101.682" width="219" height="219" transform="rotate(-15 0 101.682)" fill="#EE523C"/>
<rect x="29" y="56.6816" width="219" height="219" transform="rotate(-15 29 56.6816)" fill="#DADADA"/>
<circle cx="190" cy="120" r="69" fill="white"/>
<path d="M212.9 62.05H237.8V92C234.1 94.7 230.15 96.6833 225.95 97.95C221.783 99.1833 217.367 99.8 212.7 99.8C206.733 99.8 201.333 98.8833 196.5 97.05C191.667 95.1833 187.533 92.6 184.1 89.3C180.667 86 178.017 82.0833 176.15 77.55C174.283 73.0167 173.35 68.0667 173.35 62.7C173.35 57.2667 174.233 52.2833 176 47.75C177.8 43.2167 180.35 39.3167 183.65 36.05C186.95 32.7833 190.933 30.2333 195.6 28.4C200.3 26.5667 205.55 25.65 211.35 25.65C214.35 25.65 217.15 25.9 219.75 26.4C222.35 26.8667 224.75 27.5333 226.95 28.4C229.15 29.2333 231.167 30.2333 233 31.4C234.833 32.5667 236.5 33.85 238 35.25L233.65 41.95C232.983 43.0167 232.117 43.6667 231.05 43.9C229.983 44.1333 228.817 43.8667 227.55 43.1C226.35 42.3667 225.167 41.7167 224 41.15C222.867 40.55 221.65 40.0333 220.35 39.6C219.05 39.1667 217.633 38.8333 216.1 38.6C214.567 38.3667 212.8 38.25 210.8 38.25C207.433 38.25 204.383 38.8333 201.65 40C198.917 41.1667 196.583 42.8167 194.65 44.95C192.75 47.0833 191.283 49.65 190.25 52.65C189.217 55.65 188.7 59 188.7 62.7C188.7 66.7 189.267 70.2833 190.4 73.45C191.533 76.5833 193.133 79.2333 195.2 81.4C197.267 83.5667 199.733 85.2167 202.6 86.35C205.5 87.4833 208.717 88.05 212.25 88.05C214.65 88.05 216.783 87.8167 218.65 87.35C220.55 86.85 222.4 86.1833 224.2 85.35V73.15H216C215.033 73.15 214.267 72.9 213.7 72.4C213.167 71.8667 212.9 71.2 212.9 70.4V62.05ZM280.275 67.15C280.275 65.7167 280.075 64.35 279.675 63.05C279.308 61.75 278.708 60.6 277.875 59.6C277.042 58.6 275.992 57.8167 274.725 57.25C273.458 56.65 271.942 56.35 270.175 56.35C266.875 56.35 264.292 57.2833 262.425 59.15C260.558 61.0167 259.342 63.6833 258.775 67.15H280.275ZM258.575 75.35C259.008 80.1833 260.375 83.7167 262.675 85.95C265.008 88.1833 268.042 89.3 271.775 89.3C273.675 89.3 275.308 89.0833 276.675 88.65C278.075 88.1833 279.292 87.6833 280.325 87.15C281.392 86.5833 282.342 86.0833 283.175 85.65C284.042 85.1833 284.892 84.95 285.725 84.95C286.792 84.95 287.625 85.35 288.225 86.15L292.225 91.15C290.758 92.85 289.142 94.2667 287.375 95.4C285.608 96.5 283.775 97.3833 281.875 98.05C279.975 98.6833 278.058 99.1167 276.125 99.35C274.192 99.6167 272.325 99.75 270.525 99.75C266.925 99.75 263.558 99.1667 260.425 98C257.325 96.8 254.608 95.05 252.275 92.75C249.975 90.4167 248.158 87.5333 246.825 84.1C245.492 80.6667 244.825 76.6833 244.825 72.15C244.825 68.65 245.392 65.35 246.525 62.25C247.692 59.15 249.358 56.45 251.525 54.15C253.692 51.85 256.325 50.0333 259.425 48.7C262.525 47.3333 266.025 46.65 269.925 46.65C273.225 46.65 276.258 47.1833 279.025 48.25C281.825 49.2833 284.225 50.8 286.225 52.8C288.258 54.8 289.825 57.2667 290.925 60.2C292.058 63.1 292.625 66.4167 292.625 70.15C292.625 71.1833 292.575 72.0333 292.475 72.7C292.375 73.3667 292.208 73.9 291.975 74.3C291.742 74.7 291.425 74.9833 291.025 75.15C290.625 75.2833 290.108 75.35 289.475 75.35H258.575ZM313.988 53.45C315.022 52.45 316.088 51.5333 317.188 50.7C318.322 49.8667 319.505 49.15 320.738 48.55C322.005 47.95 323.355 47.4833 324.788 47.15C326.255 46.8167 327.838 46.65 329.538 46.65C332.338 46.65 334.822 47.1333 336.988 48.1C339.155 49.0667 340.972 50.4167 342.438 52.15C343.938 53.8833 345.055 55.95 345.788 58.35C346.555 60.75 346.938 63.3833 346.938 66.25V99H333.188V66.25C333.188 63.3833 332.522 61.1667 331.188 59.6C329.855 58 327.888 57.2 325.288 57.2C323.355 57.2 321.538 57.6167 319.838 58.45C318.138 59.2833 316.522 60.45 314.988 61.95V99H301.188V47.45H309.688C311.422 47.45 312.572 48.25 313.138 49.85L313.988 53.45ZM390.627 67.15C390.627 65.7167 390.427 64.35 390.027 63.05C389.66 61.75 389.06 60.6 388.227 59.6C387.393 58.6 386.343 57.8167 385.077 57.25C383.81 56.65 382.293 56.35 380.527 56.35C377.227 56.35 374.643 57.2833 372.777 59.15C370.91 61.0167 369.693 63.6833 369.127 67.15H390.627ZM368.927 75.35C369.36 80.1833 370.727 83.7167 373.027 85.95C375.36 88.1833 378.393 89.3 382.127 89.3C384.027 89.3 385.66 89.0833 387.027 88.65C388.427 88.1833 389.643 87.6833 390.677 87.15C391.743 86.5833 392.693 86.0833 393.527 85.65C394.393 85.1833 395.243 84.95 396.077 84.95C397.143 84.95 397.977 85.35 398.577 86.15L402.577 91.15C401.11 92.85 399.493 94.2667 397.727 95.4C395.96 96.5 394.127 97.3833 392.227 98.05C390.327 98.6833 388.41 99.1167 386.477 99.35C384.543 99.6167 382.677 99.75 380.877 99.75C377.277 99.75 373.91 99.1667 370.777 98C367.677 96.8 364.96 95.05 362.627 92.75C360.327 90.4167 358.51 87.5333 357.177 84.1C355.843 80.6667 355.177 76.6833 355.177 72.15C355.177 68.65 355.743 65.35 356.877 62.25C358.043 59.15 359.71 56.45 361.877 54.15C364.043 51.85 366.677 50.0333 369.777 48.7C372.877 47.3333 376.377 46.65 380.277 46.65C383.577 46.65 386.61 47.1833 389.377 48.25C392.177 49.2833 394.577 50.8 396.577 52.8C398.61 54.8 400.177 57.2667 401.277 60.2C402.41 63.1 402.977 66.4167 402.977 70.15C402.977 71.1833 402.927 72.0333 402.827 72.7C402.727 73.3667 402.56 73.9 402.327 74.3C402.093 74.7 401.777 74.9833 401.377 75.15C400.977 75.2833 400.46 75.35 399.827 75.35H368.927ZM424.49 55.95C426.123 53.0167 428.007 50.7 430.14 49C432.273 47.3 434.773 46.45 437.64 46.45C439.973 46.45 441.873 47 443.34 48.1L442.44 58.3C442.273 58.9667 442.007 59.4333 441.64 59.7C441.307 59.9333 440.84 60.05 440.24 60.05C439.707 60.05 438.94 59.9833 437.94 59.85C436.94 59.6833 436.007 59.6 435.14 59.6C433.873 59.6 432.74 59.7833 431.74 60.15C430.773 60.5167 429.907 61.0333 429.14 61.7C428.373 62.3667 427.673 63.1833 427.04 64.15C426.44 65.1167 425.873 66.2167 425.34 67.45V99H411.54V47.45H419.69C421.09 47.45 422.057 47.7 422.59 48.2C423.123 48.7 423.507 49.5667 423.74 50.8L424.49 55.95ZM463.435 47.45V99H449.635V47.45H463.435ZM465.085 32.8C465.085 33.9667 464.852 35.05 464.385 36.05C463.918 37.05 463.285 37.9333 462.485 38.7C461.718 39.4667 460.802 40.0667 459.735 40.5C458.702 40.9333 457.585 41.15 456.385 41.15C455.252 41.15 454.168 40.9333 453.135 40.5C452.135 40.0667 451.252 39.4667 450.485 38.7C449.718 37.9333 449.102 37.05 448.635 36.05C448.202 35.05 447.985 33.9667 447.985 32.8C447.985 31.6333 448.202 30.55 448.635 29.55C449.102 28.5167 449.718 27.6167 450.485 26.85C451.252 26.0833 452.135 25.4833 453.135 25.05C454.168 24.6167 455.252 24.4 456.385 24.4C457.585 24.4 458.702 24.6167 459.735 25.05C460.802 25.4833 461.718 26.0833 462.485 26.85C463.285 27.6167 463.918 28.5167 464.385 29.55C464.852 30.55 465.085 31.6333 465.085 32.8ZM512.612 58.95C512.212 59.4833 511.812 59.9 511.412 60.2C511.012 60.4667 510.445 60.6 509.712 60.6C509.045 60.6 508.395 60.4167 507.762 60.05C507.162 59.65 506.462 59.2333 505.662 58.8C504.862 58.3333 503.912 57.9167 502.812 57.55C501.712 57.15 500.345 56.95 498.712 56.95C496.645 56.95 494.845 57.3333 493.312 58.1C491.812 58.8333 490.562 59.9 489.562 61.3C488.562 62.7 487.812 64.4 487.312 66.4C486.845 68.4 486.612 70.65 486.612 73.15C486.612 78.4167 487.662 82.45 489.762 85.25C491.895 88.05 494.795 89.45 498.462 89.45C499.728 89.45 500.812 89.35 501.712 89.15C502.645 88.9167 503.445 88.6333 504.112 88.3C504.812 87.9667 505.412 87.6 505.912 87.2C506.412 86.8 506.878 86.4333 507.312 86.1C507.778 85.7667 508.228 85.5 508.662 85.3C509.128 85.0667 509.645 84.95 510.212 84.95C511.278 84.95 512.112 85.35 512.712 86.15L516.662 91.15C515.195 92.85 513.628 94.2667 511.962 95.4C510.295 96.5 508.562 97.3833 506.762 98.05C504.995 98.6833 503.195 99.1167 501.362 99.35C499.528 99.6167 497.712 99.75 495.912 99.75C492.745 99.75 489.745 99.1667 486.912 98C484.078 96.8 481.595 95.0667 479.462 92.8C477.328 90.5333 475.628 87.75 474.362 84.45C473.128 81.15 472.512 77.3833 472.512 73.15C472.512 69.3833 473.062 65.8833 474.162 62.65C475.262 59.4167 476.878 56.6167 479.012 54.25C481.145 51.8833 483.778 50.0333 486.912 48.7C490.078 47.3333 493.728 46.65 497.862 46.65C501.795 46.65 505.245 47.2833 508.212 48.55C511.178 49.8167 513.845 51.65 516.212 54.05L512.612 58.95ZM584.58 62.05H609.48V92C605.78 94.7 601.83 96.6833 597.63 97.95C593.463 99.1833 589.046 99.8 584.38 99.8C578.413 99.8 573.013 98.8833 568.18 97.05C563.346 95.1833 559.213 92.6 555.78 89.3C552.346 86 549.696 82.0833 547.83 77.55C545.963 73.0167 545.03 68.0667 545.03 62.7C545.03 57.2667 545.913 52.2833 547.68 47.75C549.48 43.2167 552.03 39.3167 555.33 36.05C558.63 32.7833 562.613 30.2333 567.28 28.4C571.98 26.5667 577.23 25.65 583.03 25.65C586.03 25.65 588.83 25.9 591.43 26.4C594.03 26.8667 596.43 27.5333 598.63 28.4C600.83 29.2333 602.846 30.2333 604.68 31.4C606.513 32.5667 608.18 33.85 609.68 35.25L605.33 41.95C604.663 43.0167 603.796 43.6667 602.73 43.9C601.663 44.1333 600.496 43.8667 599.23 43.1C598.03 42.3667 596.846 41.7167 595.68 41.15C594.546 40.55 593.33 40.0333 592.03 39.6C590.73 39.1667 589.313 38.8333 587.78 38.6C586.246 38.3667 584.48 38.25 582.48 38.25C579.113 38.25 576.063 38.8333 573.33 40C570.596 41.1667 568.263 42.8167 566.33 44.95C564.43 47.0833 562.963 49.65 561.93 52.65C560.896 55.65 560.38 59 560.38 62.7C560.38 66.7 560.946 70.2833 562.08 73.45C563.213 76.5833 564.813 79.2333 566.88 81.4C568.946 83.5667 571.413 85.2167 574.28 86.35C577.18 87.4833 580.396 88.05 583.93 88.05C586.33 88.05 588.463 87.8167 590.33 87.35C592.23 86.85 594.08 86.1833 595.88 85.35V73.15H587.68C586.713 73.15 585.946 72.9 585.38 72.4C584.846 71.8667 584.58 71.2 584.58 70.4V62.05ZM633.643 24.45V99H619.843V24.45H633.643ZM668.384 46.65C672.25 46.65 675.767 47.2667 678.934 48.5C682.1 49.7333 684.817 51.5 687.084 53.8C689.35 56.0667 691.1 58.8333 692.334 62.1C693.567 65.3667 694.184 69.05 694.184 73.15C694.184 77.25 693.567 80.95 692.334 84.25C691.1 87.5167 689.35 90.3 687.084 92.6C684.817 94.9 682.1 96.6667 678.934 97.9C675.767 99.1333 672.25 99.75 668.384 99.75C664.484 99.75 660.934 99.1333 657.734 97.9C654.567 96.6667 651.85 94.9 649.584 92.6C647.317 90.3 645.55 87.5167 644.284 84.25C643.05 80.95 642.434 77.25 642.434 73.15C642.434 69.05 643.05 65.3667 644.284 62.1C645.55 58.8333 647.317 56.0667 649.584 53.8C651.85 51.5 654.567 49.7333 657.734 48.5C660.934 47.2667 664.484 46.65 668.384 46.65ZM668.384 89.4C672.317 89.4 675.234 88.05 677.134 85.35C679.034 82.6167 679.984 78.5667 679.984 73.2C679.984 67.8667 679.034 63.85 677.134 61.15C675.234 58.4167 672.317 57.05 668.384 57.05C664.35 57.05 661.384 58.4167 659.484 61.15C657.584 63.85 656.634 67.8667 656.634 73.2C656.634 78.5667 657.584 82.6167 659.484 85.35C661.384 88.05 664.35 89.4 668.384 89.4ZM716.648 85.4C717.948 86.9 719.348 87.95 720.848 88.55C722.382 89.15 723.965 89.45 725.598 89.45C727.298 89.45 728.832 89.15 730.198 88.55C731.598 87.9167 732.798 86.9333 733.798 85.6C734.798 84.2333 735.565 82.4667 736.098 80.3C736.632 78.1333 736.898 75.5167 736.898 72.45C736.898 69.7167 736.682 67.4 736.248 65.5C735.815 63.5667 735.165 61.9833 734.298 60.75C733.465 59.5167 732.432 58.6167 731.198 58.05C729.965 57.4833 728.532 57.2 726.898 57.2C724.732 57.2 722.848 57.6833 721.248 58.65C719.682 59.5833 718.148 60.9667 716.648 62.8V85.4ZM716.648 53.4C718.682 51.3667 720.932 49.7333 723.398 48.5C725.865 47.2667 728.632 46.65 731.698 46.65C734.665 46.65 737.332 47.25 739.698 48.45C742.098 49.6167 744.132 51.3 745.798 53.5C747.498 55.7 748.798 58.3667 749.698 61.5C750.632 64.6 751.098 68.0833 751.098 71.95C751.098 76.1167 750.565 79.9167 749.498 83.35C748.465 86.75 746.982 89.6667 745.048 92.1C743.115 94.5333 740.798 96.4167 738.098 97.75C735.432 99.0833 732.448 99.75 729.148 99.75C727.548 99.75 726.115 99.5833 724.848 99.25C723.582 98.95 722.415 98.5167 721.348 97.95C720.282 97.3833 719.298 96.7167 718.398 95.95C717.498 95.15 716.648 94.2667 715.848 93.3L715.298 96.4C715.065 97.3667 714.682 98.05 714.148 98.45C713.615 98.8167 712.898 99 711.998 99H702.848V24.45H716.648V53.4ZM786.927 77.45C783.561 77.6167 780.761 77.9167 778.527 78.35C776.294 78.75 774.511 79.2833 773.177 79.95C771.877 80.6167 770.944 81.3833 770.377 82.25C769.844 83.0833 769.577 84 769.577 85C769.577 87 770.127 88.4167 771.227 89.25C772.361 90.0833 773.927 90.5 775.927 90.5C778.227 90.5 780.211 90.1 781.877 89.3C783.577 88.4667 785.261 87.1833 786.927 85.45V77.45ZM758.827 54.6C761.861 51.8667 765.211 49.8333 768.877 48.5C772.544 47.1333 776.511 46.45 780.777 46.45C783.844 46.45 786.577 46.95 788.977 47.95C791.411 48.95 793.461 50.35 795.127 52.15C796.827 53.9167 798.127 56.0333 799.027 58.5C799.927 60.9667 800.377 63.6667 800.377 66.6V99H794.077C792.777 99 791.777 98.8167 791.077 98.45C790.411 98.0833 789.861 97.3167 789.427 96.15L788.327 92.85C787.027 93.9833 785.761 94.9833 784.527 95.85C783.327 96.7167 782.077 97.45 780.777 98.05C779.477 98.6167 778.077 99.05 776.577 99.35C775.111 99.65 773.461 99.8 771.627 99.8C769.361 99.8 767.294 99.5 765.427 98.9C763.561 98.3 761.944 97.4167 760.577 96.25C759.244 95.05 758.211 93.5667 757.477 91.8C756.744 90.0333 756.377 88 756.377 85.7C756.377 83.8 756.861 81.9 757.827 80C758.794 78.1 760.444 76.3833 762.777 74.85C765.144 73.2833 768.277 72 772.177 71C776.111 69.9667 781.027 69.3833 786.927 69.25V66.6C786.927 63.3667 786.244 61 784.877 59.5C783.511 57.9667 781.544 57.2 778.977 57.2C777.077 57.2 775.494 57.4333 774.227 57.9C772.961 58.3333 771.844 58.8167 770.877 59.35C769.944 59.85 769.061 60.3333 768.227 60.8C767.394 61.2333 766.427 61.45 765.327 61.45C764.361 61.45 763.544 61.2167 762.877 60.75C762.244 60.25 761.711 59.6667 761.277 59L758.827 54.6ZM825.049 24.45V99H811.249V24.45H825.049ZM227 201.15C227.833 201.15 228.533 201.45 229.1 202.05L235.05 208.4C232.117 212.133 228.467 214.967 224.1 216.9C219.767 218.833 214.6 219.8 208.6 219.8C203.167 219.8 198.283 218.883 193.95 217.05C189.617 215.183 185.933 212.6 182.9 209.3C179.867 206 177.533 202.083 175.9 197.55C174.267 193.017 173.45 188.067 173.45 182.7C173.45 179.1 173.833 175.683 174.6 172.45C175.4 169.183 176.55 166.183 178.05 163.45C179.55 160.717 181.35 158.25 183.45 156.05C185.583 153.85 187.983 151.983 190.65 150.45C193.317 148.883 196.217 147.7 199.35 146.9C202.517 146.067 205.883 145.65 209.45 145.65C212.117 145.65 214.633 145.883 217 146.35C219.4 146.817 221.633 147.467 223.7 148.3C225.767 149.133 227.667 150.15 229.4 151.35C231.167 152.517 232.75 153.8 234.15 155.2L229.1 162.1C228.8 162.533 228.417 162.917 227.95 163.25C227.483 163.583 226.85 163.75 226.05 163.75C225.25 163.75 224.433 163.467 223.6 162.9C222.8 162.333 221.8 161.7 220.6 161C219.433 160.3 217.95 159.667 216.15 159.1C214.383 158.533 212.133 158.25 209.4 158.25C206.367 158.25 203.583 158.8 201.05 159.9C198.517 161 196.333 162.6 194.5 164.7C192.7 166.767 191.3 169.317 190.3 172.35C189.3 175.383 188.8 178.833 188.8 182.7C188.8 186.6 189.333 190.083 190.4 193.15C191.5 196.183 192.983 198.75 194.85 200.85C196.75 202.95 198.95 204.55 201.45 205.65C203.983 206.717 206.683 207.25 209.55 207.25C211.25 207.25 212.783 207.167 214.15 207C215.55 206.833 216.833 206.55 218 206.15C219.2 205.75 220.317 205.233 221.35 204.6C222.417 203.967 223.483 203.167 224.55 202.2C224.917 201.9 225.3 201.65 225.7 201.45C226.1 201.25 226.533 201.15 227 201.15ZM263.794 166.65C267.66 166.65 271.177 167.267 274.344 168.5C277.51 169.733 280.227 171.5 282.494 173.8C284.76 176.067 286.51 178.833 287.744 182.1C288.977 185.367 289.594 189.05 289.594 193.15C289.594 197.25 288.977 200.95 287.744 204.25C286.51 207.517 284.76 210.3 282.494 212.6C280.227 214.9 277.51 216.667 274.344 217.9C271.177 219.133 267.66 219.75 263.794 219.75C259.894 219.75 256.344 219.133 253.144 217.9C249.977 216.667 247.26 214.9 244.994 212.6C242.727 210.3 240.96 207.517 239.694 204.25C238.46 200.95 237.844 197.25 237.844 193.15C237.844 189.05 238.46 185.367 239.694 182.1C240.96 178.833 242.727 176.067 244.994 173.8C247.26 171.5 249.977 169.733 253.144 168.5C256.344 167.267 259.894 166.65 263.794 166.65ZM263.794 209.4C267.727 209.4 270.644 208.05 272.544 205.35C274.444 202.617 275.394 198.567 275.394 193.2C275.394 187.867 274.444 183.85 272.544 181.15C270.644 178.417 267.727 177.05 263.794 177.05C259.76 177.05 256.794 178.417 254.894 181.15C252.994 183.85 252.044 187.867 252.044 193.2C252.044 198.567 252.994 202.617 254.894 205.35C256.794 208.05 259.76 209.4 263.794 209.4ZM311.059 173.45C312.092 172.45 313.159 171.533 314.259 170.7C315.392 169.867 316.575 169.15 317.809 168.55C319.075 167.95 320.425 167.483 321.859 167.15C323.325 166.817 324.909 166.65 326.609 166.65C329.409 166.65 331.892 167.133 334.059 168.1C336.225 169.067 338.042 170.417 339.509 172.15C341.009 173.883 342.125 175.95 342.859 178.35C343.625 180.75 344.009 183.383 344.009 186.25V219H330.259V186.25C330.259 183.383 329.592 181.167 328.259 179.6C326.925 178 324.959 177.2 322.359 177.2C320.425 177.2 318.609 177.617 316.909 178.45C315.209 179.283 313.592 180.45 312.059 181.95V219H298.259V167.45H306.759C308.492 167.45 309.642 168.25 310.209 169.85L311.059 173.45ZM357.77 219V177.35L353.77 176.65C352.737 176.45 351.887 176.083 351.22 175.55C350.587 175.017 350.27 174.25 350.27 173.25V167.75H357.77V164.35C357.77 161.417 358.22 158.767 359.12 156.4C360.054 154 361.37 151.983 363.07 150.35C364.77 148.683 366.854 147.4 369.32 146.5C371.787 145.6 374.57 145.15 377.67 145.15C378.87 145.15 380.004 145.233 381.07 145.4C382.17 145.533 383.27 145.75 384.37 146.05L384.07 152.85C384.004 153.883 383.554 154.567 382.72 154.9C381.92 155.2 381.02 155.35 380.02 155.35C378.62 155.35 377.354 155.5 376.22 155.8C375.12 156.1 374.187 156.617 373.42 157.35C372.654 158.05 372.07 159.017 371.67 160.25C371.27 161.45 371.07 162.95 371.07 164.75V167.75H383.87V177.35H371.52V219H357.77ZM421.779 187.15C421.779 185.717 421.579 184.35 421.179 183.05C420.812 181.75 420.212 180.6 419.379 179.6C418.546 178.6 417.496 177.817 416.229 177.25C414.962 176.65 413.446 176.35 411.679 176.35C408.379 176.35 405.796 177.283 403.929 179.15C402.062 181.017 400.846 183.683 400.279 187.15H421.779ZM400.079 195.35C400.512 200.183 401.879 203.717 404.179 205.95C406.512 208.183 409.546 209.3 413.279 209.3C415.179 209.3 416.812 209.083 418.179 208.65C419.579 208.183 420.796 207.683 421.829 207.15C422.896 206.583 423.846 206.083 424.679 205.65C425.546 205.183 426.396 204.95 427.229 204.95C428.296 204.95 429.129 205.35 429.729 206.15L433.729 211.15C432.262 212.85 430.646 214.267 428.879 215.4C427.112 216.5 425.279 217.383 423.379 218.05C421.479 218.683 419.562 219.117 417.629 219.35C415.696 219.617 413.829 219.75 412.029 219.75C408.429 219.75 405.062 219.167 401.929 218C398.829 216.8 396.112 215.05 393.779 212.75C391.479 210.417 389.662 207.533 388.329 204.1C386.996 200.667 386.329 196.683 386.329 192.15C386.329 188.65 386.896 185.35 388.029 182.25C389.196 179.15 390.862 176.45 393.029 174.15C395.196 171.85 397.829 170.033 400.929 168.7C404.029 167.333 407.529 166.65 411.429 166.65C414.729 166.65 417.762 167.183 420.529 168.25C423.329 169.283 425.729 170.8 427.729 172.8C429.762 174.8 431.329 177.267 432.429 180.2C433.562 183.1 434.129 186.417 434.129 190.15C434.129 191.183 434.079 192.033 433.979 192.7C433.879 193.367 433.712 193.9 433.479 194.3C433.246 194.7 432.929 194.983 432.529 195.15C432.129 195.283 431.612 195.35 430.979 195.35H400.079ZM455.642 175.95C457.276 173.017 459.159 170.7 461.292 169C463.426 167.3 465.926 166.45 468.792 166.45C471.126 166.45 473.026 167 474.492 168.1L473.592 178.3C473.426 178.967 473.159 179.433 472.792 179.7C472.459 179.933 471.992 180.05 471.392 180.05C470.859 180.05 470.092 179.983 469.092 179.85C468.092 179.683 467.159 179.6 466.292 179.6C465.026 179.6 463.892 179.783 462.892 180.15C461.926 180.517 461.059 181.033 460.292 181.7C459.526 182.367 458.826 183.183 458.192 184.15C457.592 185.117 457.026 186.217 456.492 187.45V219H442.692V167.45H450.842C452.242 167.45 453.209 167.7 453.742 168.2C454.276 168.7 454.659 169.567 454.892 170.8L455.642 175.95ZM511.916 187.15C511.916 185.717 511.716 184.35 511.316 183.05C510.949 181.75 510.349 180.6 509.516 179.6C508.682 178.6 507.632 177.817 506.366 177.25C505.099 176.65 503.582 176.35 501.816 176.35C498.516 176.35 495.932 177.283 494.066 179.15C492.199 181.017 490.982 183.683 490.416 187.15H511.916ZM490.216 195.35C490.649 200.183 492.016 203.717 494.316 205.95C496.649 208.183 499.682 209.3 503.416 209.3C505.316 209.3 506.949 209.083 508.316 208.65C509.716 208.183 510.932 207.683 511.966 207.15C513.032 206.583 513.982 206.083 514.816 205.65C515.682 205.183 516.532 204.95 517.366 204.95C518.432 204.95 519.266 205.35 519.866 206.15L523.866 211.15C522.399 212.85 520.782 214.267 519.016 215.4C517.249 216.5 515.416 217.383 513.516 218.05C511.616 218.683 509.699 219.117 507.766 219.35C505.832 219.617 503.966 219.75 502.166 219.75C498.566 219.75 495.199 219.167 492.066 218C488.966 216.8 486.249 215.05 483.916 212.75C481.616 210.417 479.799 207.533 478.466 204.1C477.132 200.667 476.466 196.683 476.466 192.15C476.466 188.65 477.032 185.35 478.166 182.25C479.332 179.15 480.999 176.45 483.166 174.15C485.332 171.85 487.966 170.033 491.066 168.7C494.166 167.333 497.666 166.65 501.566 166.65C504.866 166.65 507.899 167.183 510.666 168.25C513.466 169.283 515.866 170.8 517.866 172.8C519.899 174.8 521.466 177.267 522.566 180.2C523.699 183.1 524.266 186.417 524.266 190.15C524.266 191.183 524.216 192.033 524.116 192.7C524.016 193.367 523.849 193.9 523.616 194.3C523.382 194.7 523.066 194.983 522.666 195.15C522.266 195.283 521.749 195.35 521.116 195.35H490.216ZM545.629 173.45C546.662 172.45 547.729 171.533 548.829 170.7C549.962 169.867 551.146 169.15 552.379 168.55C553.646 167.95 554.996 167.483 556.429 167.15C557.896 166.817 559.479 166.65 561.179 166.65C563.979 166.65 566.462 167.133 568.629 168.1C570.796 169.067 572.612 170.417 574.079 172.15C575.579 173.883 576.696 175.95 577.429 178.35C578.196 180.75 578.579 183.383 578.579 186.25V219H564.829V186.25C564.829 183.383 564.162 181.167 562.829 179.6C561.496 178 559.529 177.2 556.929 177.2C554.996 177.2 553.179 177.617 551.479 178.45C549.779 179.283 548.162 180.45 546.629 181.95V219H532.829V167.45H541.329C543.062 167.45 544.212 168.25 544.779 169.85L545.629 173.45ZM626.967 178.95C626.567 179.483 626.167 179.9 625.767 180.2C625.367 180.467 624.801 180.6 624.067 180.6C623.401 180.6 622.751 180.417 622.117 180.05C621.517 179.65 620.817 179.233 620.017 178.8C619.217 178.333 618.267 177.917 617.167 177.55C616.067 177.15 614.701 176.95 613.067 176.95C611.001 176.95 609.201 177.333 607.667 178.1C606.167 178.833 604.917 179.9 603.917 181.3C602.917 182.7 602.167 184.4 601.667 186.4C601.201 188.4 600.967 190.65 600.967 193.15C600.967 198.417 602.017 202.45 604.117 205.25C606.251 208.05 609.151 209.45 612.817 209.45C614.084 209.45 615.167 209.35 616.067 209.15C617.001 208.917 617.801 208.633 618.467 208.3C619.167 207.967 619.767 207.6 620.267 207.2C620.767 206.8 621.234 206.433 621.667 206.1C622.134 205.767 622.584 205.5 623.017 205.3C623.484 205.067 624.001 204.95 624.567 204.95C625.634 204.95 626.467 205.35 627.067 206.15L631.017 211.15C629.551 212.85 627.984 214.267 626.317 215.4C624.651 216.5 622.917 217.383 621.117 218.05C619.351 218.683 617.551 219.117 615.717 219.35C613.884 219.617 612.067 219.75 610.267 219.75C607.101 219.75 604.101 219.167 601.267 218C598.434 216.8 595.951 215.067 593.817 212.8C591.684 210.533 589.984 207.75 588.717 204.45C587.484 201.15 586.867 197.383 586.867 193.15C586.867 189.383 587.417 185.883 588.517 182.65C589.617 179.417 591.234 176.617 593.367 174.25C595.501 171.883 598.134 170.033 601.267 168.7C604.434 167.333 608.084 166.65 612.217 166.65C616.151 166.65 619.601 167.283 622.567 168.55C625.534 169.817 628.201 171.65 630.567 174.05L626.967 178.95ZM669.826 187.15C669.826 185.717 669.626 184.35 669.226 183.05C668.859 181.75 668.259 180.6 667.426 179.6C666.592 178.6 665.542 177.817 664.276 177.25C663.009 176.65 661.492 176.35 659.726 176.35C656.426 176.35 653.842 177.283 651.976 179.15C650.109 181.017 648.892 183.683 648.326 187.15H669.826ZM648.126 195.35C648.559 200.183 649.926 203.717 652.226 205.95C654.559 208.183 657.592 209.3 661.326 209.3C663.226 209.3 664.859 209.083 666.226 208.65C667.626 208.183 668.842 207.683 669.876 207.15C670.942 206.583 671.892 206.083 672.726 205.65C673.592 205.183 674.442 204.95 675.276 204.95C676.342 204.95 677.176 205.35 677.776 206.15L681.776 211.15C680.309 212.85 678.692 214.267 676.926 215.4C675.159 216.5 673.326 217.383 671.426 218.05C669.526 218.683 667.609 219.117 665.676 219.35C663.742 219.617 661.876 219.75 660.076 219.75C656.476 219.75 653.109 219.167 649.976 218C646.876 216.8 644.159 215.05 641.826 212.75C639.526 210.417 637.709 207.533 636.376 204.1C635.042 200.667 634.376 196.683 634.376 192.15C634.376 188.65 634.942 185.35 636.076 182.25C637.242 179.15 638.909 176.45 641.076 174.15C643.242 171.85 645.876 170.033 648.976 168.7C652.076 167.333 655.576 166.65 659.476 166.65C662.776 166.65 665.809 167.183 668.576 168.25C671.376 169.283 673.776 170.8 675.776 172.8C677.809 174.8 679.376 177.267 680.476 180.2C681.609 183.1 682.176 186.417 682.176 190.15C682.176 191.183 682.126 192.033 682.026 192.7C681.926 193.367 681.759 193.9 681.526 194.3C681.292 194.7 680.976 194.983 680.576 195.15C680.176 195.283 679.659 195.35 679.026 195.35H648.126ZM757.72 206.35C759.22 206.35 760.386 206.767 761.22 207.6C762.086 208.433 762.52 209.533 762.52 210.9V219H712.22V214.5C712.22 213.633 712.403 212.7 712.77 211.7C713.136 210.667 713.753 209.733 714.62 208.9L736.12 187.35C737.953 185.517 739.57 183.767 740.97 182.1C742.37 180.4 743.536 178.75 744.47 177.15C745.403 175.517 746.103 173.867 746.57 172.2C747.036 170.533 747.27 168.783 747.27 166.95C747.27 163.717 746.436 161.267 744.77 159.6C743.103 157.9 740.753 157.05 737.72 157.05C736.386 157.05 735.153 157.25 734.02 157.65C732.92 158.017 731.92 158.533 731.02 159.2C730.153 159.867 729.403 160.65 728.77 161.55C728.136 162.45 727.67 163.433 727.37 164.5C726.77 166.167 725.953 167.283 724.92 167.85C723.92 168.383 722.486 168.5 720.62 168.2L713.32 166.9C713.853 163.367 714.853 160.267 716.32 157.6C717.786 154.933 719.62 152.717 721.82 150.95C724.02 149.183 726.536 147.867 729.37 147C732.203 146.1 735.253 145.65 738.52 145.65C741.953 145.65 745.07 146.167 747.87 147.2C750.703 148.2 753.12 149.617 755.12 151.45C757.12 153.25 758.67 155.433 759.77 158C760.87 160.567 761.42 163.4 761.42 166.5C761.42 169.167 761.036 171.633 760.27 173.9C759.503 176.167 758.453 178.333 757.12 180.4C755.82 182.433 754.303 184.417 752.57 186.35C750.836 188.283 749.003 190.233 747.07 192.2L731.67 207.95C733.37 207.45 735.053 207.067 736.72 206.8C738.386 206.5 739.953 206.35 741.42 206.35H757.72ZM822.527 182.7C822.527 189.033 821.844 194.533 820.477 199.2C819.111 203.867 817.227 207.733 814.827 210.8C812.427 213.833 809.577 216.1 806.277 217.6C803.011 219.067 799.477 219.8 795.677 219.8C791.877 219.8 788.344 219.067 785.077 217.6C781.811 216.1 778.994 213.833 776.627 210.8C774.261 207.733 772.394 203.867 771.027 199.2C769.694 194.533 769.027 189.033 769.027 182.7C769.027 176.367 769.694 170.883 771.027 166.25C772.394 161.583 774.261 157.733 776.627 154.7C778.994 151.633 781.811 149.367 785.077 147.9C788.344 146.4 791.877 145.65 795.677 145.65C799.477 145.65 803.011 146.4 806.277 147.9C809.577 149.367 812.427 151.633 814.827 154.7C817.227 157.733 819.111 161.583 820.477 166.25C821.844 170.883 822.527 176.367 822.527 182.7ZM808.277 182.7C808.277 177.567 807.911 173.333 807.177 170C806.477 166.667 805.544 164.033 804.377 162.1C803.211 160.167 801.861 158.817 800.327 158.05C798.827 157.283 797.277 156.9 795.677 156.9C794.077 156.9 792.527 157.283 791.027 158.05C789.561 158.817 788.244 160.167 787.077 162.1C785.944 164.033 785.027 166.667 784.327 170C783.627 173.333 783.277 177.567 783.277 182.7C783.277 187.867 783.627 192.117 784.327 195.45C785.027 198.783 785.944 201.417 787.077 203.35C788.244 205.283 789.561 206.633 791.027 207.4C792.527 208.167 794.077 208.55 795.677 208.55C797.277 208.55 798.827 208.167 800.327 207.4C801.861 206.633 803.211 205.283 804.377 203.35C805.544 201.417 806.477 198.783 807.177 195.45C807.911 192.117 808.277 187.867 808.277 182.7ZM873.735 206.35C875.235 206.35 876.402 206.767 877.235 207.6C878.102 208.433 878.535 209.533 878.535 210.9V219H828.235V214.5C828.235 213.633 828.418 212.7 828.785 211.7C829.152 210.667 829.768 209.733 830.635 208.9L852.135 187.35C853.968 185.517 855.585 183.767 856.985 182.1C858.385 180.4 859.552 178.75 860.485 177.15C861.418 175.517 862.118 173.867 862.585 172.2C863.052 170.533 863.285 168.783 863.285 166.95C863.285 163.717 862.452 161.267 860.785 159.6C859.118 157.9 856.768 157.05 853.735 157.05C852.402 157.05 851.168 157.25 850.035 157.65C848.935 158.017 847.935 158.533 847.035 159.2C846.168 159.867 845.418 160.65 844.785 161.55C844.152 162.45 843.685 163.433 843.385 164.5C842.785 166.167 841.968 167.283 840.935 167.85C839.935 168.383 838.502 168.5 836.635 168.2L829.335 166.9C829.868 163.367 830.868 160.267 832.335 157.6C833.802 154.933 835.635 152.717 837.835 150.95C840.035 149.183 842.552 147.867 845.385 147C848.218 146.1 851.268 145.65 854.535 145.65C857.968 145.65 861.085 146.167 863.885 147.2C866.718 148.2 869.135 149.617 871.135 151.45C873.135 153.25 874.685 155.433 875.785 158C876.885 160.567 877.435 163.4 877.435 166.5C877.435 169.167 877.052 171.633 876.285 173.9C875.518 176.167 874.468 178.333 873.135 180.4C871.835 182.433 870.318 184.417 868.585 186.35C866.852 188.283 865.018 190.233 863.085 192.2L847.685 207.95C849.385 207.45 851.068 207.067 852.735 206.8C854.402 206.5 855.968 206.35 857.435 206.35H873.735ZM887.743 166.9C888.276 163.367 889.276 160.267 890.743 157.6C892.21 154.933 894.043 152.717 896.243 150.95C898.443 149.183 900.943 147.867 903.743 147C906.576 146.1 909.626 145.65 912.893 145.65C916.36 145.65 919.46 146.15 922.193 147.15C924.96 148.117 927.293 149.45 929.193 151.15C931.093 152.85 932.543 154.833 933.543 157.1C934.576 159.367 935.093 161.8 935.093 164.4C935.093 166.7 934.843 168.733 934.343 170.5C933.876 172.233 933.16 173.75 932.193 175.05C931.26 176.35 930.093 177.45 928.693 178.35C927.326 179.25 925.743 180 923.943 180.6C932.276 183.333 936.443 188.883 936.443 197.25C936.443 200.95 935.76 204.217 934.393 207.05C933.026 209.85 931.193 212.2 928.893 214.1C926.593 216 923.91 217.433 920.843 218.4C917.81 219.333 914.626 219.8 911.293 219.8C907.76 219.8 904.643 219.4 901.943 218.6C899.243 217.8 896.86 216.6 894.793 215C892.76 213.4 891.01 211.4 889.543 209C888.076 206.567 886.793 203.733 885.693 200.5L891.793 198C893.393 197.333 894.876 197.15 896.243 197.45C897.643 197.75 898.643 198.483 899.243 199.65C899.91 200.917 900.61 202.083 901.343 203.15C902.11 204.217 902.96 205.15 903.893 205.95C904.826 206.717 905.876 207.317 907.043 207.75C908.243 208.183 909.61 208.4 911.143 208.4C913.076 208.4 914.76 208.083 916.193 207.45C917.626 206.817 918.826 206 919.793 205C920.76 203.967 921.476 202.817 921.943 201.55C922.443 200.25 922.693 198.967 922.693 197.7C922.693 196.033 922.543 194.533 922.243 193.2C921.943 191.833 921.243 190.683 920.143 189.75C919.076 188.783 917.476 188.05 915.343 187.55C913.243 187.017 910.376 186.75 906.743 186.75V177.05C909.776 177.05 912.26 176.8 914.193 176.3C916.126 175.8 917.643 175.1 918.743 174.2C919.843 173.3 920.593 172.217 920.993 170.95C921.426 169.683 921.643 168.3 921.643 166.8C921.643 163.633 920.81 161.217 919.143 159.55C917.51 157.883 915.176 157.05 912.143 157.05C910.81 157.05 909.576 157.25 908.443 157.65C907.343 158.017 906.343 158.533 905.443 159.2C904.576 159.867 903.826 160.65 903.193 161.55C902.56 162.45 902.093 163.433 901.793 164.5C901.16 166.167 900.343 167.283 899.343 167.85C898.343 168.383 896.893 168.5 894.993 168.2L887.743 166.9Z" fill="black"/>
</svg>
