<svg xmlns="http://www.w3.org/2000/svg" version="1.1" xmlns:xlink="http://www.w3.org/1999/xlink" xmlns:svgjs="http://svgjs.com/svgjs" width="512" height="512" x="0" y="0" viewBox="0 0 512 512" style="enable-background:new 0 0 512 512" xml:space="preserve" class=""><g>
<g>
	<path style="" d="M219.106,260.424c0,24.248-18.969,42.116-42.249,42.116s-42.249-17.868-42.249-42.116   c0-24.419,18.969-42.116,42.249-42.116S219.106,236.005,219.106,260.424z M200.611,260.424c0-15.153-10.994-25.52-23.754-25.52   c-12.76,0-23.754,10.368-23.754,25.52c0,15.001,10.994,25.52,23.754,25.52C189.617,285.945,200.611,275.406,200.611,260.424z" fill="#ffffff" data-original="#ff4131" class=""></path>
	<path style="" d="M310.25,260.424c0,24.248-18.969,42.116-42.249,42.116c-23.28,0-42.249-17.868-42.249-42.116   c0-24.4,18.969-42.116,42.249-42.116C291.28,218.308,310.25,236.005,310.25,260.424z M291.755,260.424   c0-15.153-10.994-25.52-23.754-25.52c-12.76,0-23.754,10.368-23.754,25.52c0,15.001,10.994,25.52,23.754,25.52   C280.761,285.945,291.755,275.406,291.755,260.424z" fill="#ffffff" data-original="#ffbc00" class=""></path>
	<path style="" d="M397.596,220.853v75.611c0,31.103-18.343,43.806-40.027,43.806   c-20.412,0-32.698-13.653-37.331-24.818l16.102-6.703c2.867,6.855,9.893,14.944,21.21,14.944c13.88,0,22.482-8.564,22.482-24.685   v-6.057h-0.646c-4.139,5.108-12.115,9.57-22.178,9.57c-21.058,0-40.35-18.343-40.35-41.945c0-23.773,19.292-42.268,40.35-42.268   c10.045,0,18.02,4.462,22.178,9.418h0.646v-6.855h17.564L397.596,220.853z M381.342,260.576c0-14.83-9.893-25.672-22.482-25.672   c-12.76,0-23.451,10.842-23.451,25.672c0,14.678,10.69,25.368,23.451,25.368C371.449,285.945,381.342,275.254,381.342,260.576z" fill="#ffffff" data-original="#0085f7" class=""></path>
	<path style="" d="M426.553,176.534v123.424h-18.039V176.534H426.553z" fill="#ffffff" data-original="#00a94b" class=""></path>
	<path style="" d="M496.847,274.286l14.355,9.57c-4.633,6.855-15.798,18.665-35.09,18.665   c-23.925,0-41.793-18.495-41.793-42.116c0-25.046,18.02-42.116,39.723-42.116c21.855,0,32.546,17.393,36.04,26.792l1.918,4.785   l-56.3,23.318c4.31,8.45,11.013,12.76,20.412,12.76C485.53,285.945,492.062,281.311,496.847,274.286L496.847,274.286z    M452.662,259.133l37.635-15.627c-2.07-5.26-8.298-8.924-15.627-8.924C465.27,234.581,452.187,242.879,452.662,259.133z" fill="#ffffff" data-original="#ff4131" class=""></path>
	<path style="" d="M66.326,249.468V231.6h60.212c0.589,3.114,0.892,6.798,0.892,10.785   c0,13.406-3.665,29.982-15.475,41.793c-11.488,11.963-26.166,18.343-45.61,18.343C30.305,302.521,0,273.165,0,237.126   s30.305-65.396,66.345-65.396c19.938,0,34.141,7.823,44.812,18.02l-12.608,12.608c-7.652-7.178-18.02-12.76-32.223-12.76   c-26.318,0-46.901,21.21-46.901,47.528s20.583,47.528,46.901,47.528c17.07,0,26.792-6.855,33.021-13.083   c5.051-5.051,8.374-12.266,9.684-22.121L66.326,249.468z" fill="#ffffff" data-original="#0085f7" class=""></path>
</g>















</g></svg>