<svg xmlns="http://www.w3.org/2000/svg" version="1.1" xmlns:xlink="http://www.w3.org/1999/xlink" xmlns:svgjs="http://svgjs.com/svgjs" width="512" height="512" x="0" y="0" viewBox="0 0 64 64" style="enable-background:new 0 0 512 512" xml:space="preserve"><g><path d="m62 7c.553 0 1-.447 1-1v-4c0-.553-.447-1-1-1h-60c-.553 0-1 .447-1 1v4c0 .553.447 1 1 1h1v28h-1c-.553 0-1 .447-1 1v4c0 .553.447 1 1 1h60c.553 0 1-.447 1-1v-4c0-.553-.447-1-1-1h-1v-28zm-59-4h58v2h-58zm58 36h-58v-2h58zm-44-4h-8v-2h8zm36 0h-4v-2h4zm6 0h-4v-3c0-.553-.447-1-1-1h-6c-.553 0-1 .447-1 1v3h-28v-3c0-.553-.447-1-1-1h-10c-.553 0-1 .447-1 1v3h-2v-28h54z" fill="#ffffff" data-original="#000000"></path><path d="m14 29h36c.553 0 1-.447 1-1v-4c0-.553-.447-1-1-1h-3v-5c0-.553-.447-1-1-1h-4c-.553 0-1 .447-1 1v5h-2v-13c0-.553-.447-1-1-1h-4c-.553 0-1 .447-1 1v13h-2v-9c0-.553-.447-1-1-1h-4c-.553 0-1 .447-1 1v9h-2v-7c0-.553-.447-1-1-1h-4c-.553 0-1 .447-1 1v7h-3c-.553 0-1 .447-1 1v4c0 .553.447 1 1 1zm29-10h2v4h-2zm-8-8h2v12h-2zm-8 4h2v8h-2zm-8 2h2v6h-2zm-4 8h34v2h-34z" fill="#ffffff" data-original="#000000"></path><path d="m49.305 51.723c1.031-.917 1.695-2.238 1.695-3.723 0-2.757-2.243-5-5-5s-5 2.243-5 5c0 1.485.664 2.806 1.695 3.723-1.566.714-2.865 1.914-3.695 3.413-.83-1.498-2.129-2.698-3.695-3.413 1.031-.917 1.695-2.238 1.695-3.723 0-2.757-2.243-5-5-5s-5 2.243-5 5c0 1.485.664 2.806 1.695 3.723-1.566.714-2.865 1.914-3.695 3.413-.83-1.498-2.129-2.698-3.695-3.413 1.031-.917 1.695-2.238 1.695-3.723 0-2.757-2.243-5-5-5s-5 2.243-5 5c0 1.485.664 2.806 1.695 3.723-2.765 1.261-4.695 4.045-4.695 7.277v3c0 .553.447 1 1 1h42c.553 0 1-.447 1-1v-3c0-3.232-1.93-6.016-4.695-7.277zm-6.305-3.723c0-1.654 1.346-3 3-3s3 1.346 3 3-1.346 3-3 3-3-1.346-3-3zm-14 0c0-1.654 1.346-3 3-3s3 1.346 3 3-1.346 3-3 3-3-1.346-3-3zm-14 0c0-1.654 1.346-3 3-3s3 1.346 3 3-1.346 3-3 3-3-1.346-3-3zm-3 11c0-3.309 2.691-6 6-6s6 2.691 6 6v2h-12zm14 0c0-3.309 2.691-6 6-6s6 2.691 6 6v2h-12zm26 2h-12v-2c0-3.309 2.691-6 6-6s6 2.691 6 6z" fill="#ffffff" data-original="#000000"></path></g></svg>