<svg width="325" height="325" viewBox="0 0 325 325" fill="none" xmlns="http://www.w3.org/2000/svg">
<path d="M32.5269 36.7696L36.7696 32.5269L50.9117 46.669L46.6691 50.9117L32.5269 36.7696Z" fill="#272A31"/>
<path d="M18.3848 50.9117L14.1421 46.669L28.2843 32.5269L32.5269 36.7695L18.3848 50.9117Z" fill="#EC5242"/>
<path d="M32.5269 28.2843L28.2843 32.5269L14.1421 18.3848L18.3848 14.1421L32.5269 28.2843Z" fill="#272A31"/>
<path d="M46.6691 14.1421L50.9117 18.3848L36.7696 32.5269L32.5269 28.2843L46.6691 14.1421Z" fill="#EC5242"/>
<path d="M32.5269 184.77L36.7696 180.527L50.9117 194.669L46.6691 198.912L32.5269 184.77Z" fill="#272A31"/>
<path d="M18.3848 198.912L14.1421 194.669L28.2843 180.527L32.5269 184.77L18.3848 198.912Z" fill="#EC5242"/>
<path d="M32.5269 176.284L28.2843 180.527L14.1421 166.385L18.3848 162.142L32.5269 176.284Z" fill="#272A31"/>
<path d="M46.6691 162.142L50.9117 166.385L36.7696 180.527L32.5269 176.284L46.6691 162.142Z" fill="#EC5242"/>
<path d="M180.527 36.7696L184.77 32.5269L198.912 46.669L194.669 50.9117L180.527 36.7696Z" fill="#272A31"/>
<path d="M166.385 50.9117L162.142 46.669L176.284 32.5269L180.527 36.7695L166.385 50.9117Z" fill="#EC5242"/>
<path d="M180.527 28.2843L176.284 32.5269L162.142 18.3848L166.385 14.1421L180.527 28.2843Z" fill="#272A31"/>
<path d="M194.669 14.1421L198.912 18.3848L184.77 32.5269L180.527 28.2843L194.669 14.1421Z" fill="#EC5242"/>
<path d="M180.527 184.77L184.77 180.527L198.912 194.669L194.669 198.912L180.527 184.77Z" fill="#272A31"/>
<path d="M166.385 198.912L162.142 194.669L176.284 180.527L180.527 184.77L166.385 198.912Z" fill="#EC5242"/>
<path d="M180.527 176.284L176.284 180.527L162.142 166.385L166.385 162.142L180.527 176.284Z" fill="#272A31"/>
<path d="M194.669 162.142L198.912 166.385L184.77 180.527L180.527 176.284L194.669 162.142Z" fill="#EC5242"/>
<path d="M32.5269 110.77L36.7696 106.527L50.9117 120.669L46.6691 124.912L32.5269 110.77Z" fill="#272A31"/>
<path d="M18.3848 124.912L14.1421 120.669L28.2843 106.527L32.5269 110.77L18.3848 124.912Z" fill="#EC5242"/>
<path d="M32.5269 102.284L28.2843 106.527L14.1421 92.3848L18.3848 88.1421L32.5269 102.284Z" fill="#272A31"/>
<path d="M46.6691 88.1421L50.9117 92.3848L36.7696 106.527L32.5269 102.284L46.6691 88.1421Z" fill="#EC5242"/>
<path d="M32.5269 258.77L36.7696 254.527L50.9117 268.669L46.6691 272.912L32.5269 258.77Z" fill="#272A31"/>
<path d="M18.3848 272.912L14.1421 268.669L28.2843 254.527L32.5269 258.77L18.3848 272.912Z" fill="#EC5242"/>
<path d="M32.5269 250.284L28.2843 254.527L14.1421 240.385L18.3848 236.142L32.5269 250.284Z" fill="#272A31"/>
<path d="M46.6691 236.142L50.9117 240.385L36.7696 254.527L32.5269 250.284L46.6691 236.142Z" fill="#EC5242"/>
<path d="M180.527 110.77L184.77 106.527L198.912 120.669L194.669 124.912L180.527 110.77Z" fill="#272A31"/>
<path d="M166.385 124.912L162.142 120.669L176.284 106.527L180.527 110.77L166.385 124.912Z" fill="#EC5242"/>
<path d="M180.527 102.284L176.284 106.527L162.142 92.3848L166.385 88.1421L180.527 102.284Z" fill="#272A31"/>
<path d="M194.669 88.1421L198.912 92.3848L184.77 106.527L180.527 102.284L194.669 88.1421Z" fill="#EC5242"/>
<path d="M180.527 258.77L184.77 254.527L198.912 268.669L194.669 272.912L180.527 258.77Z" fill="#272A31"/>
<path d="M166.385 272.912L162.142 268.669L176.284 254.527L180.527 258.77L166.385 272.912Z" fill="#EC5242"/>
<path d="M180.527 250.284L176.284 254.527L162.142 240.385L166.385 236.142L180.527 250.284Z" fill="#272A31"/>
<path d="M194.669 236.142L198.912 240.385L184.77 254.527L180.527 250.284L194.669 236.142Z" fill="#EC5242"/>
<path d="M32.5269 73.7696L36.7696 69.5269L50.9117 83.669L46.6691 87.9117L32.5269 73.7696Z" fill="#272A31"/>
<path d="M18.3848 87.9117L14.1421 83.669L28.2843 69.5269L32.5269 73.7696L18.3848 87.9117Z" fill="#EC5242"/>
<path d="M32.5269 65.2843L28.2843 69.5269L14.1421 55.3848L18.3848 51.1421L32.5269 65.2843Z" fill="#272A31"/>
<path d="M46.6691 51.1421L50.9117 55.3848L36.7696 69.5269L32.5269 65.2843L46.6691 51.1421Z" fill="#EC5242"/>
<path d="M32.5269 221.77L36.7696 217.527L50.9117 231.669L46.6691 235.912L32.5269 221.77Z" fill="#272A31"/>
<path d="M18.3848 235.912L14.1421 231.669L28.2843 217.527L32.5269 221.77L18.3848 235.912Z" fill="#EC5242"/>
<path d="M32.5269 213.284L28.2843 217.527L14.1421 203.385L18.3848 199.142L32.5269 213.284Z" fill="#272A31"/>
<path d="M46.6691 199.142L50.9117 203.385L36.7696 217.527L32.5269 213.284L46.6691 199.142Z" fill="#EC5242"/>
<path d="M180.527 73.7696L184.77 69.5269L198.912 83.669L194.669 87.9117L180.527 73.7696Z" fill="#272A31"/>
<path d="M166.385 87.9117L162.142 83.669L176.284 69.5269L180.527 73.7696L166.385 87.9117Z" fill="#EC5242"/>
<path d="M180.527 65.2843L176.284 69.5269L162.142 55.3848L166.385 51.1421L180.527 65.2843Z" fill="#272A31"/>
<path d="M194.669 51.1421L198.912 55.3848L184.77 69.5269L180.527 65.2843L194.669 51.1421Z" fill="#EC5242"/>
<path d="M180.527 221.77L184.77 217.527L198.912 231.669L194.669 235.912L180.527 221.77Z" fill="#272A31"/>
<path d="M166.385 235.912L162.142 231.669L176.284 217.527L180.527 221.77L166.385 235.912Z" fill="#EC5242"/>
<path d="M180.527 213.284L176.284 217.527L162.142 203.385L166.385 199.142L180.527 213.284Z" fill="#272A31"/>
<path d="M194.669 199.142L198.912 203.385L184.77 217.527L180.527 213.284L194.669 199.142Z" fill="#EC5242"/>
<path d="M32.5269 147.77L36.7696 143.527L50.9117 157.669L46.6691 161.912L32.5269 147.77Z" fill="#272A31"/>
<path d="M18.3848 161.912L14.1421 157.669L28.2843 143.527L32.5269 147.77L18.3848 161.912Z" fill="#EC5242"/>
<path d="M32.5269 139.284L28.2843 143.527L14.1421 129.385L18.3848 125.142L32.5269 139.284Z" fill="#272A31"/>
<path d="M46.6691 125.142L50.9117 129.385L36.7696 143.527L32.5269 139.284L46.6691 125.142Z" fill="#EC5242"/>
<path d="M32.5269 295.77L36.7696 291.527L50.9117 305.669L46.6691 309.912L32.5269 295.77Z" fill="#272A31"/>
<path d="M18.3848 309.912L14.1421 305.669L28.2843 291.527L32.5269 295.77L18.3848 309.912Z" fill="#EC5242"/>
<path d="M32.5269 287.284L28.2843 291.527L14.1421 277.385L18.3848 273.142L32.5269 287.284Z" fill="#272A31"/>
<path d="M46.6691 273.142L50.9117 277.385L36.7696 291.527L32.5269 287.284L46.6691 273.142Z" fill="#EC5242"/>
<path d="M180.527 147.77L184.77 143.527L198.912 157.669L194.669 161.912L180.527 147.77Z" fill="#272A31"/>
<path d="M166.385 161.912L162.142 157.669L176.284 143.527L180.527 147.77L166.385 161.912Z" fill="#EC5242"/>
<path d="M180.527 139.284L176.284 143.527L162.142 129.385L166.385 125.142L180.527 139.284Z" fill="#272A31"/>
<path d="M194.669 125.142L198.912 129.385L184.77 143.527L180.527 139.284L194.669 125.142Z" fill="#EC5242"/>
<path d="M180.527 295.77L184.77 291.527L198.912 305.669L194.669 309.912L180.527 295.77Z" fill="#272A31"/>
<path d="M166.385 309.912L162.142 305.669L176.284 291.527L180.527 295.77L166.385 309.912Z" fill="#EC5242"/>
<path d="M180.527 287.284L176.284 291.527L162.142 277.385L166.385 273.142L180.527 287.284Z" fill="#272A31"/>
<path d="M194.669 273.142L198.912 277.385L184.77 291.527L180.527 287.284L194.669 273.142Z" fill="#EC5242"/>
<path d="M106.527 36.7696L110.77 32.5269L124.912 46.669L120.669 50.9117L106.527 36.7696Z" fill="#272A31"/>
<path d="M92.3848 50.9117L88.1421 46.669L102.284 32.5269L106.527 36.7695L92.3848 50.9117Z" fill="#EC5242"/>
<path d="M106.527 28.2843L102.284 32.5269L88.1421 18.3848L92.3848 14.1421L106.527 28.2843Z" fill="#272A31"/>
<path d="M120.669 14.1421L124.912 18.3848L110.77 32.5269L106.527 28.2843L120.669 14.1421Z" fill="#EC5242"/>
<path d="M106.527 184.77L110.77 180.527L124.912 194.669L120.669 198.912L106.527 184.77Z" fill="#272A31"/>
<path d="M92.3848 198.912L88.1421 194.669L102.284 180.527L106.527 184.77L92.3848 198.912Z" fill="#EC5242"/>
<path d="M106.527 176.284L102.284 180.527L88.1421 166.385L92.3848 162.142L106.527 176.284Z" fill="#272A31"/>
<path d="M120.669 162.142L124.912 166.385L110.77 180.527L106.527 176.284L120.669 162.142Z" fill="#EC5242"/>
<path d="M254.527 36.7696L258.77 32.5269L272.912 46.669L268.669 50.9117L254.527 36.7696Z" fill="#272A31"/>
<path d="M240.385 50.9117L236.142 46.669L250.284 32.5269L254.527 36.7695L240.385 50.9117Z" fill="#EC5242"/>
<path d="M254.527 28.2843L250.284 32.5269L236.142 18.3848L240.385 14.1421L254.527 28.2843Z" fill="#272A31"/>
<path d="M268.669 14.1421L272.912 18.3848L258.77 32.5269L254.527 28.2843L268.669 14.1421Z" fill="#EC5242"/>
<path d="M254.527 184.77L258.77 180.527L272.912 194.669L268.669 198.912L254.527 184.77Z" fill="#272A31"/>
<path d="M240.385 198.912L236.142 194.669L250.284 180.527L254.527 184.77L240.385 198.912Z" fill="#EC5242"/>
<path d="M254.527 176.284L250.284 180.527L236.142 166.385L240.385 162.142L254.527 176.284Z" fill="#272A31"/>
<path d="M268.669 162.142L272.912 166.385L258.77 180.527L254.527 176.284L268.669 162.142Z" fill="#EC5242"/>
<path d="M106.527 110.77L110.77 106.527L124.912 120.669L120.669 124.912L106.527 110.77Z" fill="#272A31"/>
<path d="M92.3848 124.912L88.1421 120.669L102.284 106.527L106.527 110.77L92.3848 124.912Z" fill="#EC5242"/>
<path d="M106.527 102.284L102.284 106.527L88.1421 92.3848L92.3848 88.1421L106.527 102.284Z" fill="#272A31"/>
<path d="M120.669 88.1421L124.912 92.3848L110.77 106.527L106.527 102.284L120.669 88.1421Z" fill="#EC5242"/>
<path d="M106.527 258.77L110.77 254.527L124.912 268.669L120.669 272.912L106.527 258.77Z" fill="#272A31"/>
<path d="M92.3848 272.912L88.1421 268.669L102.284 254.527L106.527 258.77L92.3848 272.912Z" fill="#EC5242"/>
<path d="M106.527 250.284L102.284 254.527L88.1421 240.385L92.3848 236.142L106.527 250.284Z" fill="#272A31"/>
<path d="M120.669 236.142L124.912 240.385L110.77 254.527L106.527 250.284L120.669 236.142Z" fill="#EC5242"/>
<path d="M254.527 110.77L258.77 106.527L272.912 120.669L268.669 124.912L254.527 110.77Z" fill="#272A31"/>
<path d="M240.385 124.912L236.142 120.669L250.284 106.527L254.527 110.77L240.385 124.912Z" fill="#EC5242"/>
<path d="M254.527 102.284L250.284 106.527L236.142 92.3848L240.385 88.1421L254.527 102.284Z" fill="#272A31"/>
<path d="M268.669 88.1421L272.912 92.3848L258.77 106.527L254.527 102.284L268.669 88.1421Z" fill="#EC5242"/>
<path d="M254.527 258.77L258.77 254.527L272.912 268.669L268.669 272.912L254.527 258.77Z" fill="#272A31"/>
<path d="M240.385 272.912L236.142 268.669L250.284 254.527L254.527 258.77L240.385 272.912Z" fill="#EC5242"/>
<path d="M254.527 250.284L250.284 254.527L236.142 240.385L240.385 236.142L254.527 250.284Z" fill="#272A31"/>
<path d="M268.669 236.142L272.912 240.385L258.77 254.527L254.527 250.284L268.669 236.142Z" fill="#EC5242"/>
<path d="M106.527 73.7696L110.77 69.5269L124.912 83.669L120.669 87.9117L106.527 73.7696Z" fill="#272A31"/>
<path d="M92.3848 87.9117L88.1421 83.669L102.284 69.5269L106.527 73.7696L92.3848 87.9117Z" fill="#EC5242"/>
<path d="M106.527 65.2843L102.284 69.5269L88.1421 55.3848L92.3848 51.1421L106.527 65.2843Z" fill="#272A31"/>
<path d="M120.669 51.1421L124.912 55.3848L110.77 69.5269L106.527 65.2843L120.669 51.1421Z" fill="#EC5242"/>
<path d="M106.527 221.77L110.77 217.527L124.912 231.669L120.669 235.912L106.527 221.77Z" fill="#272A31"/>
<path d="M92.3848 235.912L88.1421 231.669L102.284 217.527L106.527 221.77L92.3848 235.912Z" fill="#EC5242"/>
<path d="M106.527 213.284L102.284 217.527L88.1421 203.385L92.3848 199.142L106.527 213.284Z" fill="#272A31"/>
<path d="M120.669 199.142L124.912 203.385L110.77 217.527L106.527 213.284L120.669 199.142Z" fill="#EC5242"/>
<path d="M254.527 73.7696L258.77 69.5269L272.912 83.669L268.669 87.9117L254.527 73.7696Z" fill="#272A31"/>
<path d="M240.385 87.9117L236.142 83.669L250.284 69.5269L254.527 73.7696L240.385 87.9117Z" fill="#EC5242"/>
<path d="M254.527 65.2843L250.284 69.5269L236.142 55.3848L240.385 51.1421L254.527 65.2843Z" fill="#272A31"/>
<path d="M268.669 51.1421L272.912 55.3848L258.77 69.5269L254.527 65.2843L268.669 51.1421Z" fill="#EC5242"/>
<path d="M254.527 221.77L258.77 217.527L272.912 231.669L268.669 235.912L254.527 221.77Z" fill="#272A31"/>
<path d="M240.385 235.912L236.142 231.669L250.284 217.527L254.527 221.77L240.385 235.912Z" fill="#EC5242"/>
<path d="M254.527 213.284L250.284 217.527L236.142 203.385L240.385 199.142L254.527 213.284Z" fill="#272A31"/>
<path d="M268.669 199.142L272.912 203.385L258.77 217.527L254.527 213.284L268.669 199.142Z" fill="#EC5242"/>
<path d="M106.527 147.77L110.77 143.527L124.912 157.669L120.669 161.912L106.527 147.77Z" fill="#272A31"/>
<path d="M92.3848 161.912L88.1421 157.669L102.284 143.527L106.527 147.77L92.3848 161.912Z" fill="#EC5242"/>
<path d="M106.527 139.284L102.284 143.527L88.1421 129.385L92.3848 125.142L106.527 139.284Z" fill="#272A31"/>
<path d="M120.669 125.142L124.912 129.385L110.77 143.527L106.527 139.284L120.669 125.142Z" fill="#EC5242"/>
<path d="M106.527 295.77L110.77 291.527L124.912 305.669L120.669 309.912L106.527 295.77Z" fill="#272A31"/>
<path d="M92.3848 309.912L88.1421 305.669L102.284 291.527L106.527 295.77L92.3848 309.912Z" fill="#EC5242"/>
<path d="M106.527 287.284L102.284 291.527L88.1421 277.385L92.3848 273.142L106.527 287.284Z" fill="#272A31"/>
<path d="M120.669 273.142L124.912 277.385L110.77 291.527L106.527 287.284L120.669 273.142Z" fill="#EC5242"/>
<path d="M254.527 147.77L258.77 143.527L272.912 157.669L268.669 161.912L254.527 147.77Z" fill="#272A31"/>
<path d="M240.385 161.912L236.142 157.669L250.284 143.527L254.527 147.77L240.385 161.912Z" fill="#EC5242"/>
<path d="M254.527 139.284L250.284 143.527L236.142 129.385L240.385 125.142L254.527 139.284Z" fill="#272A31"/>
<path d="M268.669 125.142L272.912 129.385L258.77 143.527L254.527 139.284L268.669 125.142Z" fill="#EC5242"/>
<path d="M254.527 295.77L258.77 291.527L272.912 305.669L268.669 309.912L254.527 295.77Z" fill="#272A31"/>
<path d="M240.385 309.912L236.142 305.669L250.284 291.527L254.527 295.77L240.385 309.912Z" fill="#EC5242"/>
<path d="M254.527 287.284L250.284 291.527L236.142 277.385L240.385 273.142L254.527 287.284Z" fill="#272A31"/>
<path d="M268.669 273.142L272.912 277.385L258.77 291.527L254.527 287.284L268.669 273.142Z" fill="#EC5242"/>
<path d="M69.5269 36.7696L73.7695 32.5269L87.9117 46.669L83.669 50.9117L69.5269 36.7696Z" fill="#272A31"/>
<path d="M55.3848 50.9117L51.1421 46.669L65.2843 32.5269L69.5269 36.7695L55.3848 50.9117Z" fill="#EC5242"/>
<path d="M69.5269 28.2843L65.2843 32.5269L51.1421 18.3848L55.3848 14.1421L69.5269 28.2843Z" fill="#272A31"/>
<path d="M83.669 14.1421L87.9117 18.3848L73.7695 32.5269L69.5269 28.2843L83.669 14.1421Z" fill="#EC5242"/>
<path d="M69.5269 184.77L73.7695 180.527L87.9117 194.669L83.669 198.912L69.5269 184.77Z" fill="#272A31"/>
<path d="M55.3848 198.912L51.1421 194.669L65.2843 180.527L69.5269 184.77L55.3848 198.912Z" fill="#EC5242"/>
<path d="M69.5269 176.284L65.2843 180.527L51.1421 166.385L55.3848 162.142L69.5269 176.284Z" fill="#272A31"/>
<path d="M83.669 162.142L87.9117 166.385L73.7695 180.527L69.5269 176.284L83.669 162.142Z" fill="#EC5242"/>
<path d="M217.527 36.7696L221.77 32.5269L235.912 46.669L231.669 50.9117L217.527 36.7696Z" fill="#272A31"/>
<path d="M203.385 50.9117L199.142 46.669L213.284 32.5269L217.527 36.7695L203.385 50.9117Z" fill="#EC5242"/>
<path d="M217.527 28.2843L213.284 32.5269L199.142 18.3848L203.385 14.1421L217.527 28.2843Z" fill="#272A31"/>
<path d="M231.669 14.1421L235.912 18.3848L221.77 32.5269L217.527 28.2843L231.669 14.1421Z" fill="#EC5242"/>
<path d="M217.527 184.77L221.77 180.527L235.912 194.669L231.669 198.912L217.527 184.77Z" fill="#272A31"/>
<path d="M203.385 198.912L199.142 194.669L213.284 180.527L217.527 184.77L203.385 198.912Z" fill="#EC5242"/>
<path d="M217.527 176.284L213.284 180.527L199.142 166.385L203.385 162.142L217.527 176.284Z" fill="#272A31"/>
<path d="M231.669 162.142L235.912 166.385L221.77 180.527L217.527 176.284L231.669 162.142Z" fill="#EC5242"/>
<path d="M69.5269 110.77L73.7695 106.527L87.9117 120.669L83.669 124.912L69.5269 110.77Z" fill="#272A31"/>
<path d="M55.3848 124.912L51.1421 120.669L65.2843 106.527L69.5269 110.77L55.3848 124.912Z" fill="#EC5242"/>
<path d="M69.5269 102.284L65.2843 106.527L51.1421 92.3848L55.3848 88.1421L69.5269 102.284Z" fill="#272A31"/>
<path d="M83.669 88.1421L87.9117 92.3848L73.7695 106.527L69.5269 102.284L83.669 88.1421Z" fill="#EC5242"/>
<path d="M69.5269 258.77L73.7695 254.527L87.9117 268.669L83.669 272.912L69.5269 258.77Z" fill="#272A31"/>
<path d="M55.3848 272.912L51.1421 268.669L65.2843 254.527L69.5269 258.77L55.3848 272.912Z" fill="#EC5242"/>
<path d="M69.5269 250.284L65.2843 254.527L51.1421 240.385L55.3848 236.142L69.5269 250.284Z" fill="#272A31"/>
<path d="M83.669 236.142L87.9117 240.385L73.7695 254.527L69.5269 250.284L83.669 236.142Z" fill="#EC5242"/>
<path d="M217.527 110.77L221.77 106.527L235.912 120.669L231.669 124.912L217.527 110.77Z" fill="#272A31"/>
<path d="M203.385 124.912L199.142 120.669L213.284 106.527L217.527 110.77L203.385 124.912Z" fill="#EC5242"/>
<path d="M217.527 102.284L213.284 106.527L199.142 92.3848L203.385 88.1421L217.527 102.284Z" fill="#272A31"/>
<path d="M231.669 88.1421L235.912 92.3848L221.77 106.527L217.527 102.284L231.669 88.1421Z" fill="#EC5242"/>
<path d="M217.527 258.77L221.77 254.527L235.912 268.669L231.669 272.912L217.527 258.77Z" fill="#272A31"/>
<path d="M203.385 272.912L199.142 268.669L213.284 254.527L217.527 258.77L203.385 272.912Z" fill="#EC5242"/>
<path d="M217.527 250.284L213.284 254.527L199.142 240.385L203.385 236.142L217.527 250.284Z" fill="#272A31"/>
<path d="M231.669 236.142L235.912 240.385L221.77 254.527L217.527 250.284L231.669 236.142Z" fill="#EC5242"/>
<path d="M69.5269 73.7696L73.7695 69.5269L87.9117 83.669L83.669 87.9117L69.5269 73.7696Z" fill="#272A31"/>
<path d="M55.3848 87.9117L51.1421 83.669L65.2843 69.5269L69.5269 73.7696L55.3848 87.9117Z" fill="#EC5242"/>
<path d="M69.5269 65.2843L65.2843 69.5269L51.1421 55.3848L55.3848 51.1421L69.5269 65.2843Z" fill="#272A31"/>
<path d="M83.669 51.1421L87.9117 55.3848L73.7695 69.5269L69.5269 65.2843L83.669 51.1421Z" fill="#EC5242"/>
<path d="M69.5269 221.77L73.7695 217.527L87.9117 231.669L83.669 235.912L69.5269 221.77Z" fill="#272A31"/>
<path d="M55.3848 235.912L51.1421 231.669L65.2843 217.527L69.5269 221.77L55.3848 235.912Z" fill="#EC5242"/>
<path d="M69.5269 213.284L65.2843 217.527L51.1421 203.385L55.3848 199.142L69.5269 213.284Z" fill="#272A31"/>
<path d="M83.669 199.142L87.9117 203.385L73.7695 217.527L69.5269 213.284L83.669 199.142Z" fill="#EC5242"/>
<path d="M217.527 73.7696L221.77 69.5269L235.912 83.669L231.669 87.9117L217.527 73.7696Z" fill="#272A31"/>
<path d="M203.385 87.9117L199.142 83.669L213.284 69.5269L217.527 73.7696L203.385 87.9117Z" fill="#EC5242"/>
<path d="M217.527 65.2843L213.284 69.5269L199.142 55.3848L203.385 51.1421L217.527 65.2843Z" fill="#272A31"/>
<path d="M231.669 51.1421L235.912 55.3848L221.77 69.5269L217.527 65.2843L231.669 51.1421Z" fill="#EC5242"/>
<path d="M217.527 221.77L221.77 217.527L235.912 231.669L231.669 235.912L217.527 221.77Z" fill="#272A31"/>
<path d="M203.385 235.912L199.142 231.669L213.284 217.527L217.527 221.77L203.385 235.912Z" fill="#EC5242"/>
<path d="M217.527 213.284L213.284 217.527L199.142 203.385L203.385 199.142L217.527 213.284Z" fill="#272A31"/>
<path d="M231.669 199.142L235.912 203.385L221.77 217.527L217.527 213.284L231.669 199.142Z" fill="#EC5242"/>
<path d="M69.5269 147.77L73.7695 143.527L87.9117 157.669L83.669 161.912L69.5269 147.77Z" fill="#272A31"/>
<path d="M55.3848 161.912L51.1421 157.669L65.2843 143.527L69.5269 147.77L55.3848 161.912Z" fill="#EC5242"/>
<path d="M69.5269 139.284L65.2843 143.527L51.1421 129.385L55.3848 125.142L69.5269 139.284Z" fill="#272A31"/>
<path d="M83.669 125.142L87.9117 129.385L73.7695 143.527L69.5269 139.284L83.669 125.142Z" fill="#EC5242"/>
<path d="M69.5269 295.77L73.7695 291.527L87.9117 305.669L83.669 309.912L69.5269 295.77Z" fill="#272A31"/>
<path d="M55.3848 309.912L51.1421 305.669L65.2843 291.527L69.5269 295.77L55.3848 309.912Z" fill="#EC5242"/>
<path d="M69.5269 287.284L65.2843 291.527L51.1421 277.385L55.3848 273.142L69.5269 287.284Z" fill="#272A31"/>
<path d="M83.669 273.142L87.9117 277.385L73.7695 291.527L69.5269 287.284L83.669 273.142Z" fill="#EC5242"/>
<path d="M217.527 147.77L221.77 143.527L235.912 157.669L231.669 161.912L217.527 147.77Z" fill="#272A31"/>
<path d="M203.385 161.912L199.142 157.669L213.284 143.527L217.527 147.77L203.385 161.912Z" fill="#EC5242"/>
<path d="M217.527 139.284L213.284 143.527L199.142 129.385L203.385 125.142L217.527 139.284Z" fill="#272A31"/>
<path d="M231.669 125.142L235.912 129.385L221.77 143.527L217.527 139.284L231.669 125.142Z" fill="#EC5242"/>
<path d="M217.527 295.77L221.77 291.527L235.912 305.669L231.669 309.912L217.527 295.77Z" fill="#272A31"/>
<path d="M203.385 309.912L199.142 305.669L213.284 291.527L217.527 295.77L203.385 309.912Z" fill="#EC5242"/>
<path d="M217.527 287.284L213.284 291.527L199.142 277.385L203.385 273.142L217.527 287.284Z" fill="#272A31"/>
<path d="M231.669 273.142L235.912 277.385L221.77 291.527L217.527 287.284L231.669 273.142Z" fill="#EC5242"/>
<path d="M143.527 36.7696L147.77 32.5269L161.912 46.669L157.669 50.9117L143.527 36.7696Z" fill="#272A31"/>
<path d="M129.385 50.9117L125.142 46.669L139.284 32.5269L143.527 36.7695L129.385 50.9117Z" fill="#EC5242"/>
<path d="M143.527 28.2843L139.284 32.5269L125.142 18.3848L129.385 14.1421L143.527 28.2843Z" fill="#272A31"/>
<path d="M157.669 14.1421L161.912 18.3848L147.77 32.5269L143.527 28.2843L157.669 14.1421Z" fill="#EC5242"/>
<path d="M143.527 184.77L147.77 180.527L161.912 194.669L157.669 198.912L143.527 184.77Z" fill="#272A31"/>
<path d="M129.385 198.912L125.142 194.669L139.284 180.527L143.527 184.77L129.385 198.912Z" fill="#EC5242"/>
<path d="M143.527 176.284L139.284 180.527L125.142 166.385L129.385 162.142L143.527 176.284Z" fill="#272A31"/>
<path d="M157.669 162.142L161.912 166.385L147.77 180.527L143.527 176.284L157.669 162.142Z" fill="#EC5242"/>
<path d="M291.527 36.7696L295.77 32.5269L309.912 46.669L305.669 50.9117L291.527 36.7696Z" fill="#272A31"/>
<path d="M277.385 50.9117L273.142 46.669L287.284 32.5269L291.527 36.7695L277.385 50.9117Z" fill="#EC5242"/>
<path d="M291.527 28.2843L287.284 32.5269L273.142 18.3848L277.385 14.1421L291.527 28.2843Z" fill="#272A31"/>
<path d="M305.669 14.1421L309.912 18.3848L295.77 32.5269L291.527 28.2843L305.669 14.1421Z" fill="#EC5242"/>
<path d="M291.527 184.77L295.77 180.527L309.912 194.669L305.669 198.912L291.527 184.77Z" fill="#272A31"/>
<path d="M277.385 198.912L273.142 194.669L287.284 180.527L291.527 184.77L277.385 198.912Z" fill="#EC5242"/>
<path d="M291.527 176.284L287.284 180.527L273.142 166.385L277.385 162.142L291.527 176.284Z" fill="#272A31"/>
<path d="M305.669 162.142L309.912 166.385L295.77 180.527L291.527 176.284L305.669 162.142Z" fill="#EC5242"/>
<path d="M143.527 110.77L147.77 106.527L161.912 120.669L157.669 124.912L143.527 110.77Z" fill="#272A31"/>
<path d="M129.385 124.912L125.142 120.669L139.284 106.527L143.527 110.77L129.385 124.912Z" fill="#EC5242"/>
<path d="M143.527 102.284L139.284 106.527L125.142 92.3848L129.385 88.1421L143.527 102.284Z" fill="#272A31"/>
<path d="M157.669 88.1421L161.912 92.3848L147.77 106.527L143.527 102.284L157.669 88.1421Z" fill="#EC5242"/>
<path d="M143.527 258.77L147.77 254.527L161.912 268.669L157.669 272.912L143.527 258.77Z" fill="#272A31"/>
<path d="M129.385 272.912L125.142 268.669L139.284 254.527L143.527 258.77L129.385 272.912Z" fill="#EC5242"/>
<path d="M143.527 250.284L139.284 254.527L125.142 240.385L129.385 236.142L143.527 250.284Z" fill="#272A31"/>
<path d="M157.669 236.142L161.912 240.385L147.77 254.527L143.527 250.284L157.669 236.142Z" fill="#EC5242"/>
<path d="M291.527 110.77L295.77 106.527L309.912 120.669L305.669 124.912L291.527 110.77Z" fill="#272A31"/>
<path d="M277.385 124.912L273.142 120.669L287.284 106.527L291.527 110.77L277.385 124.912Z" fill="#EC5242"/>
<path d="M291.527 102.284L287.284 106.527L273.142 92.3848L277.385 88.1421L291.527 102.284Z" fill="#272A31"/>
<path d="M305.669 88.1421L309.912 92.3848L295.77 106.527L291.527 102.284L305.669 88.1421Z" fill="#EC5242"/>
<path d="M291.527 258.77L295.77 254.527L309.912 268.669L305.669 272.912L291.527 258.77Z" fill="#272A31"/>
<path d="M277.385 272.912L273.142 268.669L287.284 254.527L291.527 258.77L277.385 272.912Z" fill="#EC5242"/>
<path d="M291.527 250.284L287.284 254.527L273.142 240.385L277.385 236.142L291.527 250.284Z" fill="#272A31"/>
<path d="M305.669 236.142L309.912 240.385L295.77 254.527L291.527 250.284L305.669 236.142Z" fill="#EC5242"/>
<path d="M143.527 73.7696L147.77 69.5269L161.912 83.669L157.669 87.9117L143.527 73.7696Z" fill="#272A31"/>
<path d="M129.385 87.9117L125.142 83.669L139.284 69.5269L143.527 73.7696L129.385 87.9117Z" fill="#EC5242"/>
<path d="M143.527 65.2843L139.284 69.5269L125.142 55.3848L129.385 51.1421L143.527 65.2843Z" fill="#272A31"/>
<path d="M157.669 51.1421L161.912 55.3848L147.77 69.5269L143.527 65.2843L157.669 51.1421Z" fill="#EC5242"/>
<path d="M143.527 221.77L147.77 217.527L161.912 231.669L157.669 235.912L143.527 221.77Z" fill="#272A31"/>
<path d="M129.385 235.912L125.142 231.669L139.284 217.527L143.527 221.77L129.385 235.912Z" fill="#EC5242"/>
<path d="M143.527 213.284L139.284 217.527L125.142 203.385L129.385 199.142L143.527 213.284Z" fill="#272A31"/>
<path d="M157.669 199.142L161.912 203.385L147.77 217.527L143.527 213.284L157.669 199.142Z" fill="#EC5242"/>
<path d="M291.527 73.7696L295.77 69.5269L309.912 83.669L305.669 87.9117L291.527 73.7696Z" fill="#272A31"/>
<path d="M277.385 87.9117L273.142 83.669L287.284 69.5269L291.527 73.7696L277.385 87.9117Z" fill="#EC5242"/>
<path d="M291.527 65.2843L287.284 69.5269L273.142 55.3848L277.385 51.1421L291.527 65.2843Z" fill="#272A31"/>
<path d="M305.669 51.1421L309.912 55.3848L295.77 69.5269L291.527 65.2843L305.669 51.1421Z" fill="#EC5242"/>
<path d="M291.527 221.77L295.77 217.527L309.912 231.669L305.669 235.912L291.527 221.77Z" fill="#272A31"/>
<path d="M277.385 235.912L273.142 231.669L287.284 217.527L291.527 221.77L277.385 235.912Z" fill="#EC5242"/>
<path d="M291.527 213.284L287.284 217.527L273.142 203.385L277.385 199.142L291.527 213.284Z" fill="#272A31"/>
<path d="M305.669 199.142L309.912 203.385L295.77 217.527L291.527 213.284L305.669 199.142Z" fill="#EC5242"/>
<path d="M143.527 147.77L147.77 143.527L161.912 157.669L157.669 161.912L143.527 147.77Z" fill="#272A31"/>
<path d="M129.385 161.912L125.142 157.669L139.284 143.527L143.527 147.77L129.385 161.912Z" fill="#EC5242"/>
<path d="M143.527 139.284L139.284 143.527L125.142 129.385L129.385 125.142L143.527 139.284Z" fill="#272A31"/>
<path d="M157.669 125.142L161.912 129.385L147.77 143.527L143.527 139.284L157.669 125.142Z" fill="#EC5242"/>
<path d="M143.527 295.77L147.77 291.527L161.912 305.669L157.669 309.912L143.527 295.77Z" fill="#272A31"/>
<path d="M129.385 309.912L125.142 305.669L139.284 291.527L143.527 295.77L129.385 309.912Z" fill="#EC5242"/>
<path d="M143.527 287.284L139.284 291.527L125.142 277.385L129.385 273.142L143.527 287.284Z" fill="#272A31"/>
<path d="M157.669 273.142L161.912 277.385L147.77 291.527L143.527 287.284L157.669 273.142Z" fill="#EC5242"/>
<path d="M291.527 147.77L295.77 143.527L309.912 157.669L305.669 161.912L291.527 147.77Z" fill="#272A31"/>
<path d="M277.385 161.912L273.142 157.669L287.284 143.527L291.527 147.77L277.385 161.912Z" fill="#EC5242"/>
<path d="M291.527 139.284L287.284 143.527L273.142 129.385L277.385 125.142L291.527 139.284Z" fill="#272A31"/>
<path d="M305.669 125.142L309.912 129.385L295.77 143.527L291.527 139.284L305.669 125.142Z" fill="#EC5242"/>
<path d="M291.527 295.77L295.77 291.527L309.912 305.669L305.669 309.912L291.527 295.77Z" fill="#272A31"/>
<path d="M277.385 309.912L273.142 305.669L287.284 291.527L291.527 295.77L277.385 309.912Z" fill="#EC5242"/>
<path d="M291.527 287.284L287.284 291.527L273.142 277.385L277.385 273.142L291.527 287.284Z" fill="#272A31"/>
<path d="M305.669 273.142L309.912 277.385L295.77 291.527L291.527 287.284L305.669 273.142Z" fill="#EC5242"/>
</svg>
