<svg xmlns="http://www.w3.org/2000/svg" version="1.1" xmlns:xlink="http://www.w3.org/1999/xlink" xmlns:svgjs="http://svgjs.com/svgjs" width="512" height="512" x="0" y="0" viewBox="0 0 512 512" style="enable-background:new 0 0 512 512" xml:space="preserve"><g>
<g>
	<path style="fill-rule:evenodd;clip-rule:evenodd;" d="M207.51,215.321c-11.224-11.224-25.931-16.84-40.642-16.85   h-0.073c-14.711,0.009-29.418,5.626-40.642,16.85c-22.466,22.466-22.466,58.891,0,81.357c22.466,22.466,58.891,22.466,81.357,0   C229.976,274.212,229.976,237.788,207.51,215.321z M191.238,280.407c-13.48,13.48-35.334,13.48-48.814,0   c-13.48-13.48-13.48-35.334,0-48.814c13.48-13.48,35.334-13.48,48.814,0C204.718,245.073,204.718,266.927,191.238,280.407z" fill="#ffffff" data-original="#2d8cff"></path>
	<path style="fill-rule:evenodd;clip-rule:evenodd;" d="M328.319,215.321c-11.224-11.224-25.931-16.84-40.715-16.85   c-14.71,0.009-29.418,5.626-40.642,16.85c-22.466,22.466-22.466,58.891,0,81.357c22.466,22.466,58.891,22.466,81.357,0   C350.785,274.212,350.785,237.788,328.319,215.321z M312.047,280.407c-13.48,13.48-35.334,13.48-48.814,0   c-13.48-13.48-13.48-35.334,0-48.814c13.48-13.48,35.335-13.48,48.814,0C325.527,245.073,325.527,266.927,312.047,280.407z" fill="#ffffff" data-original="#2d8cff"></path>
	<path style="fill-rule:evenodd;clip-rule:evenodd;" d="M23.011,313.24l5.753,0.288h86.292l-0.288-5.747   c-0.77-9.472-7.477-16.383-16.971-16.976l-5.753-0.288H40.27l69.034-69.034l-0.288-5.746c-0.456-9.547-7.441-16.474-16.971-16.978   l-5.752-0.282L0,198.472l0.288,5.747c0.745,9.359,7.554,16.433,16.964,16.976l5.76,0.288h51.775L5.753,290.517l0.288,5.747   C6.608,305.748,13.457,312.611,23.011,313.24z" fill="#ffffff" data-original="#2d8cff"></path>
	<path style="fill-rule:evenodd;clip-rule:evenodd;" d="M416.856,232.953c1.971,3.393,2.589,7.221,2.812,11.542   l0.288,5.753v40.27l0.288,5.747c0.569,9.408,7.485,16.375,16.976,16.977l5.747,0.288v-63.281l0.288-5.753   c0.224-4.267,0.85-8.182,2.836-11.584c3.99-6.835,11.402-11.427,19.887-11.427c8.515,0,15.95,4.625,19.93,11.501   c1.96,3.386,2.566,7.295,2.794,11.511l0.288,5.747v40.276l0.288,5.747c0.597,9.463,7.471,16.425,16.976,16.977l5.747,0.288v-63.229   v-5.805c0-25.417-20.605-46.022-46.022-46.022c-13.746,0-26.084,6.026-34.517,15.581c-8.433-9.555-20.771-15.581-34.517-15.581   c-9.55,0-18.421,2.909-25.774,7.889c-4.476-4.98-14.495-7.889-20.248-7.889v115.056l5.753-0.288   c9.608-0.632,16.595-7.418,16.971-16.969l0.288-5.755v-40.27l0.288-5.753c0.243-4.327,0.845-8.164,2.823-11.561   c3.987-6.847,11.406-11.45,19.9-11.45C405.446,221.483,412.872,226.095,416.856,232.953z" fill="#ffffff" data-original="#2d8cff"></path>
</g>















</g></svg>